<svg width="908" height="277" viewBox="0 0 908 277" fill="none" xmlns="http://www.w3.org/2000/svg">
<path d="M8 0.5H168C172.142 0.5 175.5 3.85786 175.5 8V269C175.5 273.142 172.142 276.5 168 276.5H8C3.85787 276.5 0.5 273.142 0.5 269V8C0.500004 3.85787 3.85787 0.5 8 0.5Z" fill="#FFFDFA"/>
<path d="M8 0.5H168C172.142 0.5 175.5 3.85786 175.5 8V269C175.5 273.142 172.142 276.5 168 276.5H8C3.85787 276.5 0.5 273.142 0.5 269V8C0.500004 3.85787 3.85787 0.5 8 0.5Z" stroke="#DAD6D4"/>
<path d="M47.384 40L50.712 28.64H52.888L56.216 40H54.472L51.8 30.384L49.128 40H47.384ZM49.24 37.04L49.752 35.488H53.848L54.36 37.04H49.24ZM57.2017 40V38.416H59.9217V30.224H57.2017V28.64H64.3057V30.224H61.5858V38.416H64.3057V40H57.2017ZM74.2452 40L77.5733 28.64H79.7493L83.0773 40H81.3333L78.6613 30.384L75.9892 40H74.2452ZM76.1012 37.04L76.6133 35.488H80.7093L81.2213 37.04H76.1012ZM87.567 42.592C86.927 42.592 86.3563 42.4907 85.855 42.288C85.3537 42.0853 84.9377 41.7973 84.607 41.424C84.287 41.0507 84.063 40.6187 83.935 40.128L85.631 40.016C85.7483 40.368 85.9563 40.6453 86.255 40.848C86.5537 41.0507 86.991 41.152 87.567 41.152C88.2817 41.152 88.8257 41.0027 89.199 40.704C89.583 40.4053 89.775 39.9627 89.775 39.376V38.128C89.5723 38.5653 89.2523 38.912 88.815 39.168C88.3883 39.424 87.8923 39.552 87.327 39.552C86.623 39.552 85.9937 39.376 85.439 39.024C84.8843 38.672 84.4523 38.192 84.143 37.584C83.8337 36.9653 83.679 36.256 83.679 35.456C83.679 34.624 83.8283 33.8987 84.127 33.28C84.4363 32.6613 84.863 32.176 85.407 31.824C85.951 31.472 86.5697 31.296 87.263 31.296C87.8603 31.296 88.383 31.4347 88.831 31.712C89.2897 31.9787 89.6203 32.3467 89.823 32.816L89.839 31.488H91.391V39.264C91.391 39.9787 91.2363 40.5813 90.927 41.072C90.6177 41.5733 90.175 41.952 89.599 42.208C89.0337 42.464 88.3563 42.592 87.567 42.592ZM87.551 38.112C88.2123 38.112 88.7457 37.8773 89.151 37.408C89.5563 36.9387 89.7643 36.2827 89.775 35.44C89.7857 34.864 89.695 34.3787 89.503 33.984C89.3217 33.5787 89.0603 33.2693 88.719 33.056C88.3883 32.8427 87.999 32.736 87.551 32.736C86.8577 32.736 86.319 32.976 85.935 33.456C85.5617 33.9253 85.375 34.5867 85.375 35.44C85.375 36.2827 85.567 36.9387 85.951 37.408C86.3457 37.8773 86.879 38.112 87.551 38.112ZM96.6807 40.192C95.8807 40.192 95.1821 40.0107 94.5847 39.648C93.9981 39.2853 93.5394 38.768 93.2087 38.096C92.8887 37.424 92.7287 36.64 92.7287 35.744C92.7287 34.848 92.8887 34.0693 93.2087 33.408C93.5394 32.7467 93.9927 32.2293 94.5687 31.856C95.1554 31.4827 95.8434 31.296 96.6327 31.296C97.3901 31.296 98.0567 31.4773 98.6327 31.84C99.2087 32.192 99.6567 32.704 99.9767 33.376C100.307 34.0373 100.473 34.8373 100.473 35.776V36.224H94.4247C94.4781 37.0347 94.7021 37.6533 95.0967 38.08C95.5021 38.496 96.0354 38.704 96.6967 38.704C97.1981 38.704 97.6141 38.5867 97.9447 38.352C98.2754 38.1067 98.5047 37.792 98.6327 37.408L100.329 37.52C100.083 38.3307 99.6407 38.9813 99.0007 39.472C98.3714 39.952 97.5981 40.192 96.6807 40.192ZM94.4247 34.928H98.7287C98.6647 34.2027 98.4407 33.664 98.0567 33.312C97.6834 32.96 97.2087 32.784 96.6327 32.784C96.0354 32.784 95.5447 32.9653 95.1607 33.328C94.7767 33.6907 94.5314 34.224 94.4247 34.928ZM102.002 40V31.488H103.49L103.539 33.712L103.362 33.584C103.469 33.0613 103.656 32.6347 103.922 32.304C104.2 31.9627 104.536 31.712 104.931 31.552C105.325 31.3813 105.747 31.296 106.194 31.296C106.834 31.296 107.363 31.44 107.779 31.728C108.195 32.0053 108.509 32.3893 108.722 32.88C108.936 33.36 109.043 33.904 109.043 34.512V40H107.427V34.928C107.427 34.192 107.283 33.6373 106.995 33.264C106.717 32.8907 106.296 32.704 105.731 32.704C105.336 32.704 104.979 32.7893 104.658 32.96C104.349 33.1307 104.099 33.3867 103.907 33.728C103.715 34.0587 103.618 34.4693 103.618 34.96V40H102.002ZM115.692 40C114.828 40 114.183 39.8027 113.756 39.408C113.34 39.0027 113.132 38.384 113.132 37.552V29.488H114.748V37.472C114.748 37.8667 114.839 38.16 115.02 38.352C115.212 38.544 115.495 38.64 115.868 38.64H118.06V40H115.692ZM110.444 32.848V31.488H118.06V32.848H110.444ZM123.558 40.192C122.801 40.192 122.15 40.064 121.606 39.808C121.062 39.552 120.641 39.2107 120.342 38.784C120.043 38.3467 119.873 37.8613 119.83 37.328L121.478 37.232C121.563 37.6907 121.777 38.0587 122.118 38.336C122.459 38.6027 122.945 38.736 123.574 38.736C124.161 38.736 124.609 38.656 124.918 38.496C125.227 38.336 125.382 38.0853 125.382 37.744C125.382 37.5307 125.329 37.3547 125.222 37.216C125.115 37.0667 124.913 36.944 124.614 36.848C124.326 36.7413 123.899 36.6347 123.334 36.528C122.491 36.368 121.83 36.1813 121.35 35.968C120.881 35.744 120.545 35.4667 120.342 35.136C120.139 34.7947 120.038 34.384 120.038 33.904C120.038 33.4133 120.161 32.9707 120.406 32.576C120.662 32.1813 121.035 31.872 121.526 31.648C122.017 31.4133 122.625 31.296 123.35 31.296C124.107 31.296 124.731 31.4293 125.222 31.696C125.713 31.952 126.097 32.288 126.374 32.704C126.651 33.12 126.827 33.5733 126.902 34.064L125.254 34.16C125.19 33.8827 125.078 33.6427 124.918 33.44C124.758 33.2267 124.545 33.0613 124.278 32.944C124.011 32.816 123.702 32.752 123.35 32.752C122.785 32.752 122.369 32.864 122.102 33.088C121.835 33.312 121.702 33.584 121.702 33.904C121.702 34.16 121.766 34.368 121.894 34.528C122.022 34.6773 122.235 34.8053 122.534 34.912C122.833 35.008 123.238 35.104 123.75 35.2C124.614 35.3387 125.281 35.52 125.75 35.744C126.219 35.9573 126.55 36.224 126.742 36.544C126.934 36.864 127.03 37.2587 127.03 37.728C127.03 38.24 126.881 38.6827 126.582 39.056C126.294 39.4187 125.889 39.7013 125.366 39.904C124.854 40.096 124.251 40.192 123.558 40.192Z" fill="#A16915"/>
<rect x="58.5" y="61.5" width="59" height="59" rx="5.5" fill="#3C3836"/>
<rect x="58.5" y="61.5" width="59" height="59" rx="5.5" stroke="#DAD6D4"/>
<path d="M88 85V79H82" stroke="white" stroke-width="1.75" stroke-linecap="round" stroke-linejoin="round"/>
<path d="M97 85H79C77.3431 85 76 86.3431 76 88V100C76 101.657 77.3431 103 79 103H97C98.6569 103 100 101.657 100 100V88C100 86.3431 98.6569 85 97 85Z" stroke="white" stroke-width="1.75" stroke-linecap="round" stroke-linejoin="round"/>
<path d="M73 94H76" stroke="white" stroke-width="1.75" stroke-linecap="round" stroke-linejoin="round"/>
<path d="M100 94H103" stroke="white" stroke-width="1.75" stroke-linecap="round" stroke-linejoin="round"/>
<path d="M92.5 92.5V95.5" stroke="white" stroke-width="1.75" stroke-linecap="round" stroke-linejoin="round"/>
<path d="M83.5 92.5V95.5" stroke="white" stroke-width="1.75" stroke-linecap="round" stroke-linejoin="round"/>
<rect x="58.5" y="129.5" width="59" height="59" rx="5.5" fill="#3C3836"/>
<rect x="58.5" y="129.5" width="59" height="59" rx="5.5" stroke="#DAD6D4"/>
<path d="M88 153V147H82" stroke="white" stroke-width="1.75" stroke-linecap="round" stroke-linejoin="round"/>
<path d="M97 153H79C77.3431 153 76 154.343 76 156V168C76 169.657 77.3431 171 79 171H97C98.6569 171 100 169.657 100 168V156C100 154.343 98.6569 153 97 153Z" stroke="white" stroke-width="1.75" stroke-linecap="round" stroke-linejoin="round"/>
<path d="M73 162H76" stroke="white" stroke-width="1.75" stroke-linecap="round" stroke-linejoin="round"/>
<path d="M100 162H103" stroke="white" stroke-width="1.75" stroke-linecap="round" stroke-linejoin="round"/>
<path d="M92.5 160.5V163.5" stroke="white" stroke-width="1.75" stroke-linecap="round" stroke-linejoin="round"/>
<path d="M83.5 160.5V163.5" stroke="white" stroke-width="1.75" stroke-linecap="round" stroke-linejoin="round"/>
<rect x="58.5" y="197.5" width="59" height="59" rx="5.5" fill="#3C3836"/>
<rect x="58.5" y="197.5" width="59" height="59" rx="5.5" stroke="#DAD6D4"/>
<path d="M88 221V215H82" stroke="white" stroke-width="1.75" stroke-linecap="round" stroke-linejoin="round"/>
<path d="M97 221H79C77.3431 221 76 222.343 76 224V236C76 237.657 77.3431 239 79 239H97C98.6569 239 100 237.657 100 236V224C100 222.343 98.6569 221 97 221Z" stroke="white" stroke-width="1.75" stroke-linecap="round" stroke-linejoin="round"/>
<path d="M73 230H76" stroke="white" stroke-width="1.75" stroke-linecap="round" stroke-linejoin="round"/>
<path d="M100 230H103" stroke="white" stroke-width="1.75" stroke-linecap="round" stroke-linejoin="round"/>
<path d="M92.5 228.5V231.5" stroke="white" stroke-width="1.75" stroke-linecap="round" stroke-linejoin="round"/>
<path d="M83.5 228.5V231.5" stroke="white" stroke-width="1.75" stroke-linecap="round" stroke-linejoin="round"/>
<rect x="256.5" y="0.5" width="395" height="276" rx="7.5" fill="#FFFDFA"/>
<rect x="256.5" y="0.5" width="395" height="276" rx="7.5" stroke="#DAD6D4"/>
<path d="M432.088 40V28.64H434.136L437.864 37.616V28.64H439.512V40H437.464L433.736 31.024V40H432.088ZM444.866 40.192C444.066 40.192 443.367 40.0107 442.77 39.648C442.183 39.2853 441.724 38.768 441.394 38.096C441.074 37.424 440.914 36.64 440.914 35.744C440.914 34.848 441.074 34.0693 441.394 33.408C441.724 32.7467 442.178 32.2293 442.754 31.856C443.34 31.4827 444.028 31.296 444.818 31.296C445.575 31.296 446.242 31.4773 446.818 31.84C447.394 32.192 447.842 32.704 448.162 33.376C448.492 34.0373 448.658 34.8373 448.658 35.776V36.224H442.61C442.663 37.0347 442.887 37.6533 443.282 38.08C443.687 38.496 444.22 38.704 444.882 38.704C445.383 38.704 445.799 38.5867 446.13 38.352C446.46 38.1067 446.69 37.792 446.818 37.408L448.514 37.52C448.268 38.3307 447.826 38.9813 447.186 39.472C446.556 39.952 445.783 40.192 444.866 40.192ZM442.61 34.928H446.914C446.85 34.2027 446.626 33.664 446.242 33.312C445.868 32.96 445.394 32.784 444.818 32.784C444.22 32.784 443.73 32.9653 443.346 33.328C442.962 33.6907 442.716 34.224 442.61 34.928ZM449.659 40L452.763 35.632L449.819 31.488H451.643L453.723 34.528L455.755 31.488H457.611L454.683 35.664L457.755 40H455.915L453.723 36.736L451.515 40H449.659ZM461.925 40.192C461.104 40.192 460.448 39.9147 459.957 39.36C459.467 38.7947 459.221 38.0053 459.221 36.992V31.488H460.837V36.576C460.837 37.344 460.971 37.904 461.237 38.256C461.504 38.608 461.909 38.784 462.453 38.784C463.04 38.784 463.509 38.5867 463.861 38.192C464.224 37.7973 464.405 37.2373 464.405 36.512V31.488H466.021V40H464.501L464.485 37.776L464.709 37.872C464.56 38.608 464.245 39.1787 463.765 39.584C463.285 39.9893 462.672 40.192 461.925 40.192ZM471.743 40.192C470.986 40.192 470.335 40.064 469.791 39.808C469.247 39.552 468.826 39.2107 468.527 38.784C468.228 38.3467 468.058 37.8613 468.015 37.328L469.663 37.232C469.748 37.6907 469.962 38.0587 470.303 38.336C470.644 38.6027 471.13 38.736 471.759 38.736C472.346 38.736 472.794 38.656 473.103 38.496C473.412 38.336 473.567 38.0853 473.567 37.744C473.567 37.5307 473.514 37.3547 473.407 37.216C473.3 37.0667 473.098 36.944 472.799 36.848C472.511 36.7413 472.084 36.6347 471.519 36.528C470.676 36.368 470.015 36.1813 469.535 35.968C469.066 35.744 468.73 35.4667 468.527 35.136C468.324 34.7947 468.223 34.384 468.223 33.904C468.223 33.4133 468.346 32.9707 468.591 32.576C468.847 32.1813 469.22 31.872 469.711 31.648C470.202 31.4133 470.81 31.296 471.535 31.296C472.292 31.296 472.916 31.4293 473.407 31.696C473.898 31.952 474.282 32.288 474.559 32.704C474.836 33.12 475.012 33.5733 475.087 34.064L473.439 34.16C473.375 33.8827 473.263 33.6427 473.103 33.44C472.943 33.2267 472.73 33.0613 472.463 32.944C472.196 32.816 471.887 32.752 471.535 32.752C470.97 32.752 470.554 32.864 470.287 33.088C470.02 33.312 469.887 33.584 469.887 33.904C469.887 34.16 469.951 34.368 470.079 34.528C470.207 34.6773 470.42 34.8053 470.719 34.912C471.018 35.008 471.423 35.104 471.935 35.2C472.799 35.3387 473.466 35.52 473.935 35.744C474.404 35.9573 474.735 36.224 474.927 36.544C475.119 36.864 475.215 37.2587 475.215 37.728C475.215 38.24 475.066 38.6827 474.767 39.056C474.479 39.4187 474.074 39.7013 473.551 39.904C473.039 40.096 472.436 40.192 471.743 40.192Z" fill="#A16915"/>
<rect x="280.5" y="74.5" width="165" height="43" rx="5.5" fill="#3C3836"/>
<rect x="280.5" y="74.5" width="165" height="43" rx="5.5" stroke="#DAD6D4"/>
<path d="M319.804 100V91.48H322.456C323.36 91.48 324.068 91.708 324.58 92.164C325.1 92.62 325.36 93.24 325.36 94.024C325.36 94.432 325.268 94.792 325.084 95.104C324.908 95.416 324.672 95.66 324.376 95.836C324.088 96.012 323.78 96.112 323.452 96.136L323.404 95.992C323.996 96.016 324.436 96.152 324.724 96.4C325.02 96.64 325.192 97.032 325.24 97.576L325.456 100H324.196L324.004 97.816C323.98 97.536 323.92 97.312 323.824 97.144C323.728 96.976 323.58 96.856 323.38 96.784C323.18 96.712 322.904 96.676 322.552 96.676H321.064V100H319.804ZM321.064 95.5H322.432C322.96 95.5 323.364 95.376 323.644 95.128C323.924 94.88 324.064 94.532 324.064 94.084C324.064 93.628 323.924 93.28 323.644 93.04C323.364 92.792 322.96 92.668 322.432 92.668H321.064V95.5ZM328.451 100.144C328.051 100.144 327.691 100.072 327.371 99.928C327.051 99.784 326.795 99.58 326.603 99.316C326.419 99.052 326.327 98.744 326.327 98.392C326.327 97.848 326.491 97.424 326.819 97.12C327.155 96.816 327.659 96.6 328.331 96.472L330.395 96.04C330.395 95.544 330.287 95.172 330.071 94.924C329.855 94.676 329.531 94.552 329.099 94.552C328.699 94.552 328.387 94.644 328.163 94.828C327.939 95.012 327.787 95.268 327.707 95.596L326.435 95.512C326.555 94.904 326.847 94.412 327.311 94.036C327.775 93.66 328.371 93.472 329.099 93.472C329.915 93.472 330.535 93.704 330.959 94.168C331.391 94.632 331.607 95.272 331.607 96.088V98.608C331.607 98.752 331.639 98.856 331.703 98.92C331.767 98.976 331.859 99.004 331.979 99.004H332.339V100C332.291 100.008 332.211 100.016 332.099 100.024C331.995 100.032 331.891 100.036 331.787 100.036C331.499 100.036 331.255 99.988 331.055 99.892C330.855 99.796 330.703 99.648 330.599 99.448C330.503 99.24 330.447 98.98 330.431 98.668H330.623C330.575 98.948 330.451 99.2 330.251 99.424C330.051 99.648 329.795 99.824 329.483 99.952C329.171 100.08 328.827 100.144 328.451 100.144ZM328.631 99.148C329.015 99.148 329.339 99.08 329.603 98.944C329.867 98.808 330.063 98.616 330.191 98.368C330.327 98.12 330.395 97.828 330.395 97.492V97L328.619 97.36C328.235 97.432 327.967 97.544 327.815 97.696C327.663 97.848 327.587 98.048 327.587 98.296C327.587 98.56 327.679 98.768 327.863 98.92C328.047 99.072 328.303 99.148 328.631 99.148ZM336.943 100C336.295 100 335.811 99.852 335.491 99.556C335.179 99.252 335.023 98.788 335.023 98.164V92.116H336.235V98.104C336.235 98.4 336.303 98.62 336.439 98.764C336.583 98.908 336.795 98.98 337.075 98.98H338.719V100H336.943ZM333.007 94.636V93.616H338.719V94.636H333.007ZM342.83 100.144C342.23 100.144 341.706 100.008 341.258 99.736C340.818 99.464 340.474 99.076 340.226 98.572C339.986 98.068 339.866 97.48 339.866 96.808C339.866 96.136 339.986 95.552 340.226 95.056C340.474 94.56 340.814 94.172 341.246 93.892C341.686 93.612 342.202 93.472 342.794 93.472C343.362 93.472 343.862 93.608 344.294 93.88C344.726 94.144 345.062 94.528 345.302 95.032C345.55 95.528 345.674 96.128 345.674 96.832V97.168H341.138C341.178 97.776 341.346 98.24 341.642 98.56C341.946 98.872 342.346 99.028 342.842 99.028C343.218 99.028 343.53 98.94 343.778 98.764C344.026 98.58 344.198 98.344 344.294 98.056L345.566 98.14C345.382 98.748 345.05 99.236 344.57 99.604C344.098 99.964 343.518 100.144 342.83 100.144ZM341.138 96.196H344.366C344.318 95.652 344.15 95.248 343.862 94.984C343.582 94.72 343.226 94.588 342.794 94.588C342.346 94.588 341.978 94.724 341.69 94.996C341.402 95.268 341.218 95.668 341.138 96.196ZM353.753 100V91.48H355.013V99.52L354.245 98.812H359.081V100H353.753ZM362.7 100V93.616H363.924V100H362.7ZM360.204 100V98.98H366.06V100H360.204ZM360.324 94.636V93.616H363.816V94.636H360.324ZM362.628 92.692V91.432H363.876V92.692H362.628ZM366.439 100V93.616H367.495L367.543 95.056L367.411 95.02C367.491 94.532 367.647 94.152 367.879 93.88C368.119 93.608 368.419 93.472 368.779 93.472C369.163 93.472 369.451 93.608 369.643 93.88C369.843 94.152 369.967 94.556 370.015 95.092H369.883C369.955 94.58 370.119 94.184 370.375 93.904C370.631 93.616 370.951 93.472 371.335 93.472C371.839 93.472 372.203 93.648 372.427 94C372.659 94.344 372.775 94.908 372.775 95.692V100H371.599V95.896C371.599 95.384 371.543 95.028 371.431 94.828C371.327 94.628 371.163 94.528 370.939 94.528C370.795 94.528 370.663 94.576 370.543 94.672C370.431 94.768 370.343 94.92 370.279 95.128C370.215 95.328 370.183 95.592 370.183 95.92V100H369.031V95.896C369.031 95.4 368.979 95.048 368.875 94.84C368.779 94.632 368.615 94.528 368.383 94.528C368.231 94.528 368.099 94.576 367.987 94.672C367.875 94.768 367.783 94.92 367.711 95.128C367.647 95.328 367.615 95.592 367.615 95.92V100H366.439ZM376.13 100V93.616H377.354V100H376.13ZM373.634 100V98.98H379.49V100H373.634ZM373.754 94.636V93.616H377.246V94.636H373.754ZM376.059 92.692V91.432H377.307V92.692H376.059ZM383.95 100C383.302 100 382.818 99.852 382.498 99.556C382.186 99.252 382.03 98.788 382.03 98.164V92.116H383.242V98.104C383.242 98.4 383.31 98.62 383.446 98.764C383.59 98.908 383.802 98.98 384.082 98.98H385.726V100H383.95ZM380.014 94.636V93.616H385.726V94.636H380.014ZM389.561 100V93.616H390.785V100H389.561ZM387.065 100V98.98H392.921V100H387.065ZM387.185 94.636V93.616H390.677V94.636H387.185ZM389.489 92.692V91.432H390.737V92.692H389.489ZM393.828 100V93.616H394.944L394.98 95.284L394.848 95.188C394.928 94.796 395.068 94.476 395.268 94.228C395.476 93.972 395.728 93.784 396.024 93.664C396.32 93.536 396.636 93.472 396.972 93.472C397.452 93.472 397.848 93.58 398.16 93.796C398.472 94.004 398.708 94.292 398.868 94.66C399.028 95.02 399.108 95.428 399.108 95.884V100H397.896V96.196C397.896 95.644 397.788 95.228 397.572 94.948C397.364 94.668 397.048 94.528 396.624 94.528C396.328 94.528 396.06 94.592 395.82 94.72C395.588 94.848 395.4 95.04 395.256 95.296C395.112 95.544 395.04 95.852 395.04 96.22V100H393.828ZM403.148 101.944C402.668 101.944 402.24 101.868 401.864 101.716C401.488 101.564 401.176 101.348 400.928 101.068C400.688 100.788 400.52 100.464 400.424 100.096L401.696 100.012C401.784 100.276 401.94 100.484 402.164 100.636C402.388 100.788 402.716 100.864 403.148 100.864C403.684 100.864 404.092 100.752 404.372 100.528C404.66 100.304 404.804 99.972 404.804 99.532V98.596C404.652 98.924 404.412 99.184 404.084 99.376C403.764 99.568 403.392 99.664 402.968 99.664C402.44 99.664 401.968 99.532 401.552 99.268C401.136 99.004 400.812 98.644 400.58 98.188C400.348 97.724 400.232 97.192 400.232 96.592C400.232 95.968 400.344 95.424 400.568 94.96C400.8 94.496 401.12 94.132 401.528 93.868C401.936 93.604 402.4 93.472 402.92 93.472C403.368 93.472 403.76 93.576 404.096 93.784C404.44 93.984 404.688 94.26 404.84 94.612L404.852 93.616H406.016V99.448C406.016 99.984 405.9 100.436 405.668 100.804C405.436 101.18 405.104 101.464 404.672 101.656C404.248 101.848 403.74 101.944 403.148 101.944ZM403.136 98.584C403.632 98.584 404.032 98.408 404.336 98.056C404.64 97.704 404.796 97.212 404.804 96.58C404.812 96.148 404.744 95.784 404.6 95.488C404.464 95.184 404.268 94.952 404.012 94.792C403.764 94.632 403.472 94.552 403.136 94.552C402.616 94.552 402.212 94.732 401.924 95.092C401.644 95.444 401.504 95.94 401.504 96.58C401.504 97.212 401.648 97.704 401.936 98.056C402.232 98.408 402.632 98.584 403.136 98.584Z" fill="white"/>
<path d="M468 74.5H622C625.038 74.5 627.5 76.9624 627.5 80V112C627.5 115.038 625.038 117.5 622 117.5H468C464.962 117.5 462.5 115.038 462.5 112V80C462.5 76.9624 464.962 74.5 468 74.5Z" fill="#3C3836"/>
<path d="M468 74.5H622C625.038 74.5 627.5 76.9624 627.5 80V112C627.5 115.038 625.038 117.5 622 117.5H468C464.962 117.5 462.5 115.038 462.5 112V80C462.5 76.9624 464.962 74.5 468 74.5Z" stroke="#DAD6D4"/>
<path d="M507.708 100.192C507.092 100.192 506.552 100.068 506.088 99.82C505.632 99.572 505.268 99.228 504.996 98.788C504.724 98.34 504.564 97.82 504.516 97.228L505.812 97.144C505.868 97.552 505.98 97.896 506.148 98.176C506.316 98.456 506.536 98.668 506.808 98.812C507.08 98.948 507.396 99.016 507.756 99.016C508.108 99.016 508.404 98.972 508.644 98.884C508.884 98.788 509.068 98.652 509.196 98.476C509.324 98.3 509.388 98.088 509.388 97.84C509.388 97.584 509.328 97.36 509.208 97.168C509.088 96.976 508.872 96.8 508.56 96.64C508.248 96.48 507.792 96.316 507.192 96.148C506.608 95.988 506.132 95.808 505.764 95.608C505.396 95.408 505.128 95.16 504.96 94.864C504.792 94.568 504.708 94.2 504.708 93.76C504.708 93.272 504.82 92.844 505.044 92.476C505.276 92.1 505.604 91.808 506.028 91.6C506.46 91.392 506.976 91.288 507.576 91.288C508.168 91.288 508.672 91.404 509.088 91.636C509.512 91.868 509.844 92.192 510.084 92.608C510.332 93.016 510.484 93.496 510.54 94.048L509.244 94.12C509.204 93.792 509.112 93.504 508.968 93.256C508.832 93.008 508.644 92.816 508.404 92.68C508.164 92.536 507.876 92.464 507.54 92.464C507.068 92.464 506.692 92.58 506.412 92.812C506.14 93.036 506.004 93.332 506.004 93.7C506.004 93.948 506.06 94.152 506.172 94.312C506.284 94.472 506.48 94.616 506.76 94.744C507.04 94.872 507.432 95.004 507.936 95.14C508.616 95.324 509.156 95.536 509.556 95.776C509.956 96.016 510.244 96.304 510.42 96.64C510.596 96.976 510.684 97.376 510.684 97.84C510.684 98.304 510.56 98.716 510.312 99.076C510.064 99.428 509.716 99.704 509.268 99.904C508.828 100.096 508.308 100.192 507.708 100.192ZM513.451 100.144C513.051 100.144 512.691 100.072 512.371 99.928C512.051 99.784 511.795 99.58 511.603 99.316C511.419 99.052 511.327 98.744 511.327 98.392C511.327 97.848 511.491 97.424 511.819 97.12C512.155 96.816 512.659 96.6 513.331 96.472L515.395 96.04C515.395 95.544 515.287 95.172 515.071 94.924C514.855 94.676 514.531 94.552 514.099 94.552C513.699 94.552 513.387 94.644 513.163 94.828C512.939 95.012 512.787 95.268 512.707 95.596L511.435 95.512C511.555 94.904 511.847 94.412 512.311 94.036C512.775 93.66 513.371 93.472 514.099 93.472C514.915 93.472 515.535 93.704 515.959 94.168C516.391 94.632 516.607 95.272 516.607 96.088V98.608C516.607 98.752 516.639 98.856 516.703 98.92C516.767 98.976 516.859 99.004 516.979 99.004H517.339V100C517.291 100.008 517.211 100.016 517.099 100.024C516.995 100.032 516.891 100.036 516.787 100.036C516.499 100.036 516.255 99.988 516.055 99.892C515.855 99.796 515.703 99.648 515.599 99.448C515.503 99.24 515.447 98.98 515.431 98.668H515.623C515.575 98.948 515.451 99.2 515.251 99.424C515.051 99.648 514.795 99.824 514.483 99.952C514.171 100.08 513.827 100.144 513.451 100.144ZM513.631 99.148C514.015 99.148 514.339 99.08 514.603 98.944C514.867 98.808 515.063 98.616 515.191 98.368C515.327 98.12 515.395 97.828 515.395 97.492V97L513.619 97.36C513.235 97.432 512.967 97.544 512.815 97.696C512.663 97.848 512.587 98.048 512.587 98.296C512.587 98.56 512.679 98.768 512.863 98.92C513.047 99.072 513.303 99.148 513.631 99.148ZM518.391 100V93.616H519.507L519.543 95.284L519.411 95.188C519.491 94.796 519.631 94.476 519.831 94.228C520.039 93.972 520.291 93.784 520.587 93.664C520.883 93.536 521.199 93.472 521.535 93.472C522.015 93.472 522.411 93.58 522.723 93.796C523.035 94.004 523.271 94.292 523.431 94.66C523.591 95.02 523.671 95.428 523.671 95.884V100H522.459V96.196C522.459 95.644 522.351 95.228 522.135 94.948C521.927 94.668 521.611 94.528 521.187 94.528C520.891 94.528 520.623 94.592 520.383 94.72C520.151 94.848 519.963 95.04 519.819 95.296C519.675 95.544 519.603 95.852 519.603 96.22V100H518.391ZM527.554 100V93.616H528.778V100H527.554ZM525.058 100V98.98H530.914V100H525.058ZM525.178 94.636V93.616H528.67V94.636H525.178ZM527.482 92.692V91.432H528.73V92.692H527.482ZM535.373 100C534.725 100 534.241 99.852 533.921 99.556C533.609 99.252 533.453 98.788 533.453 98.164V92.116H534.665V98.104C534.665 98.4 534.733 98.62 534.869 98.764C535.013 98.908 535.225 98.98 535.505 98.98H537.149V100H535.373ZM531.437 94.636V93.616H537.149V94.636H531.437ZM540.985 100V93.616H542.209V100H540.985ZM538.489 100V98.98H544.345V100H538.489ZM538.609 94.636V93.616H542.101V94.636H538.609ZM540.913 92.692V91.432H542.161V92.692H540.913ZM545.228 100V98.86L549.092 94.636H545.348V93.616H550.46V94.756L546.584 98.98H550.556V100H545.228ZM553.743 100.144C553.343 100.144 552.983 100.072 552.663 99.928C552.343 99.784 552.087 99.58 551.895 99.316C551.711 99.052 551.619 98.744 551.619 98.392C551.619 97.848 551.783 97.424 552.111 97.12C552.447 96.816 552.951 96.6 553.623 96.472L555.687 96.04C555.687 95.544 555.579 95.172 555.363 94.924C555.147 94.676 554.823 94.552 554.391 94.552C553.991 94.552 553.679 94.644 553.455 94.828C553.231 95.012 553.079 95.268 552.999 95.596L551.727 95.512C551.847 94.904 552.139 94.412 552.603 94.036C553.067 93.66 553.663 93.472 554.391 93.472C555.207 93.472 555.827 93.704 556.251 94.168C556.683 94.632 556.899 95.272 556.899 96.088V98.608C556.899 98.752 556.931 98.856 556.995 98.92C557.059 98.976 557.151 99.004 557.271 99.004H557.631V100C557.583 100.008 557.503 100.016 557.391 100.024C557.287 100.032 557.183 100.036 557.079 100.036C556.791 100.036 556.547 99.988 556.347 99.892C556.147 99.796 555.995 99.648 555.891 99.448C555.795 99.24 555.739 98.98 555.723 98.668H555.915C555.867 98.948 555.743 99.2 555.543 99.424C555.343 99.648 555.087 99.824 554.775 99.952C554.463 100.08 554.119 100.144 553.743 100.144ZM553.923 99.148C554.307 99.148 554.631 99.08 554.895 98.944C555.159 98.808 555.355 98.616 555.483 98.368C555.619 98.12 555.687 97.828 555.687 97.492V97L553.911 97.36C553.527 97.432 553.259 97.544 553.107 97.696C552.955 97.848 552.879 98.048 552.879 98.296C552.879 98.56 552.971 98.768 553.155 98.92C553.339 99.072 553.595 99.148 553.923 99.148ZM562.235 100C561.587 100 561.103 99.852 560.783 99.556C560.47 99.252 560.314 98.788 560.314 98.164V92.116H561.526V98.104C561.526 98.4 561.594 98.62 561.731 98.764C561.875 98.908 562.087 98.98 562.367 98.98H564.011V100H562.235ZM558.298 94.636V93.616H564.011V94.636H558.298ZM567.846 100V93.616H569.07V100H567.846ZM565.35 100V98.98H571.206V100H565.35ZM565.47 94.636V93.616H568.962V94.636H565.47ZM567.774 92.692V91.432H569.022V92.692H567.774ZM574.753 100.144C574.161 100.144 573.641 100.008 573.193 99.736C572.753 99.464 572.409 99.076 572.161 98.572C571.921 98.068 571.801 97.48 571.801 96.808C571.801 96.128 571.921 95.54 572.161 95.044C572.409 94.54 572.753 94.152 573.193 93.88C573.641 93.608 574.161 93.472 574.753 93.472C575.345 93.472 575.861 93.608 576.301 93.88C576.749 94.152 577.093 94.54 577.333 95.044C577.581 95.54 577.705 96.128 577.705 96.808C577.705 97.48 577.581 98.068 577.333 98.572C577.093 99.076 576.749 99.464 576.301 99.736C575.861 100.008 575.345 100.144 574.753 100.144ZM574.753 99.028C575.289 99.028 575.701 98.832 575.989 98.44C576.285 98.048 576.433 97.504 576.433 96.808C576.433 96.112 576.285 95.568 575.989 95.176C575.701 94.784 575.289 94.588 574.753 94.588C574.217 94.588 573.801 94.784 573.505 95.176C573.217 95.568 573.073 96.112 573.073 96.808C573.073 97.504 573.217 98.048 573.505 98.44C573.801 98.832 574.217 99.028 574.753 99.028ZM578.828 100V93.616H579.944L579.98 95.284L579.848 95.188C579.928 94.796 580.068 94.476 580.268 94.228C580.476 93.972 580.728 93.784 581.024 93.664C581.32 93.536 581.636 93.472 581.972 93.472C582.452 93.472 582.848 93.58 583.16 93.796C583.472 94.004 583.708 94.292 583.868 94.66C584.028 95.02 584.108 95.428 584.108 95.884V100H582.896V96.196C582.896 95.644 582.788 95.228 582.572 94.948C582.364 94.668 582.048 94.528 581.624 94.528C581.328 94.528 581.06 94.592 580.82 94.72C580.588 94.848 580.4 95.04 580.256 95.296C580.112 95.544 580.04 95.852 580.04 96.22V100H578.828Z" fill="white"/>
<path d="M286 138.5H440C443.038 138.5 445.5 140.962 445.5 144V176C445.5 179.038 443.038 181.5 440 181.5H286C282.962 181.5 280.5 179.038 280.5 176V144C280.5 140.962 282.962 138.5 286 138.5Z" fill="#3C3836"/>
<path d="M286 138.5H440C443.038 138.5 445.5 140.962 445.5 144V176C445.5 179.038 443.038 181.5 440 181.5H286C282.962 181.5 280.5 179.038 280.5 176V144C280.5 140.962 282.962 138.5 286 138.5Z" stroke="#DAD6D4"/>
<path d="M322.6 164.192C321.92 164.192 321.344 164.02 320.872 163.676C320.408 163.332 320.052 162.828 319.804 162.164C319.556 161.5 319.432 160.696 319.432 159.752C319.432 158.792 319.556 157.98 319.804 157.316C320.052 156.652 320.408 156.148 320.872 155.804C321.344 155.46 321.92 155.288 322.6 155.288C323.28 155.288 323.856 155.46 324.328 155.804C324.8 156.148 325.156 156.652 325.396 157.316C325.644 157.98 325.768 158.792 325.768 159.752C325.768 160.696 325.644 161.5 325.396 162.164C325.156 162.828 324.8 163.332 324.328 163.676C323.856 164.02 323.28 164.192 322.6 164.192ZM322.6 163.016C323 163.016 323.336 162.896 323.608 162.656C323.888 162.416 324.1 162.052 324.244 161.564C324.388 161.076 324.46 160.472 324.46 159.752C324.46 159.032 324.388 158.428 324.244 157.94C324.1 157.444 323.888 157.076 323.608 156.836C323.336 156.588 323 156.464 322.6 156.464C322.2 156.464 321.86 156.588 321.58 156.836C321.308 157.076 321.1 157.444 320.956 157.94C320.812 158.428 320.74 159.032 320.74 159.752C320.74 160.472 320.812 161.076 320.956 161.564C321.1 162.052 321.308 162.416 321.58 162.656C321.86 162.896 322.2 163.016 322.6 163.016ZM329.819 164.144C329.371 164.144 328.979 164.044 328.643 163.844C328.307 163.636 328.047 163.36 327.863 163.016L327.827 164H326.699V155.48H327.911V158.516C328.071 158.236 328.315 157.992 328.643 157.784C328.979 157.576 329.371 157.472 329.819 157.472C330.363 157.472 330.835 157.608 331.235 157.88C331.635 158.144 331.943 158.528 332.159 159.032C332.375 159.528 332.483 160.12 332.483 160.808C332.483 161.496 332.375 162.092 332.159 162.596C331.943 163.092 331.635 163.476 331.235 163.748C330.835 164.012 330.363 164.144 329.819 164.144ZM329.615 163.028C330.119 163.028 330.511 162.832 330.791 162.44C331.071 162.04 331.211 161.496 331.211 160.808C331.211 160.112 331.071 159.568 330.791 159.176C330.511 158.784 330.127 158.588 329.639 158.588C329.279 158.588 328.971 158.676 328.715 158.852C328.459 159.028 328.259 159.28 328.115 159.608C327.979 159.936 327.911 160.336 327.911 160.808C327.911 161.264 327.979 161.66 328.115 161.996C328.259 162.324 328.455 162.58 328.703 162.764C328.959 162.94 329.263 163.028 329.615 163.028ZM336.127 164.144C335.559 164.144 335.071 164.048 334.663 163.856C334.255 163.664 333.939 163.408 333.715 163.088C333.491 162.76 333.363 162.396 333.331 161.996L334.567 161.924C334.631 162.268 334.791 162.544 335.047 162.752C335.303 162.952 335.667 163.052 336.139 163.052C336.579 163.052 336.915 162.992 337.147 162.872C337.379 162.752 337.495 162.564 337.495 162.308C337.495 162.148 337.455 162.016 337.375 161.912C337.295 161.8 337.143 161.708 336.919 161.636C336.703 161.556 336.383 161.476 335.959 161.396C335.327 161.276 334.831 161.136 334.471 160.976C334.119 160.808 333.867 160.6 333.715 160.352C333.563 160.096 333.487 159.788 333.487 159.428C333.487 159.06 333.579 158.728 333.763 158.432C333.955 158.136 334.235 157.904 334.603 157.736C334.971 157.56 335.427 157.472 335.971 157.472C336.539 157.472 337.007 157.572 337.375 157.772C337.743 157.964 338.031 158.216 338.239 158.528C338.447 158.84 338.579 159.18 338.635 159.548L337.399 159.62C337.351 159.412 337.267 159.232 337.147 159.08C337.027 158.92 336.867 158.796 336.667 158.708C336.467 158.612 336.235 158.564 335.971 158.564C335.547 158.564 335.235 158.648 335.035 158.816C334.835 158.984 334.735 159.188 334.735 159.428C334.735 159.62 334.783 159.776 334.879 159.896C334.975 160.008 335.135 160.104 335.359 160.184C335.583 160.256 335.887 160.328 336.271 160.4C336.919 160.504 337.419 160.64 337.771 160.808C338.123 160.968 338.371 161.168 338.515 161.408C338.659 161.648 338.731 161.944 338.731 162.296C338.731 162.68 338.619 163.012 338.395 163.292C338.179 163.564 337.875 163.776 337.483 163.928C337.099 164.072 336.647 164.144 336.127 164.144ZM342.83 164.144C342.23 164.144 341.706 164.008 341.258 163.736C340.818 163.464 340.474 163.076 340.226 162.572C339.986 162.068 339.866 161.48 339.866 160.808C339.866 160.136 339.986 159.552 340.226 159.056C340.474 158.56 340.814 158.172 341.246 157.892C341.686 157.612 342.202 157.472 342.794 157.472C343.362 157.472 343.862 157.608 344.294 157.88C344.726 158.144 345.062 158.528 345.302 159.032C345.55 159.528 345.674 160.128 345.674 160.832V161.168H341.138C341.178 161.776 341.346 162.24 341.642 162.56C341.946 162.872 342.346 163.028 342.842 163.028C343.218 163.028 343.53 162.94 343.778 162.764C344.026 162.58 344.198 162.344 344.294 162.056L345.566 162.14C345.382 162.748 345.05 163.236 344.57 163.604C344.098 163.964 343.518 164.144 342.83 164.144ZM341.138 160.196H344.366C344.318 159.652 344.15 159.248 343.862 158.984C343.582 158.72 343.226 158.588 342.794 158.588C342.346 158.588 341.978 158.724 341.69 158.996C341.402 159.268 341.218 159.668 341.138 160.196ZM348.489 164V157.616H349.449L349.557 159.248L349.449 159.236C349.529 158.684 349.701 158.276 349.965 158.012C350.229 157.748 350.593 157.616 351.057 157.616H352.413V158.672H351.105C350.801 158.672 350.545 158.732 350.337 158.852C350.129 158.964 349.969 159.136 349.857 159.368C349.753 159.592 349.701 159.872 349.701 160.208V164H348.489ZM346.869 164V162.98H351.693V164H346.869ZM346.869 158.636V157.616H349.173V158.636H346.869ZM355.421 164L353.117 157.616H354.425L356.177 162.716L357.929 157.616H359.237L356.933 164H355.421ZM362.028 164.144C361.628 164.144 361.268 164.072 360.948 163.928C360.628 163.784 360.372 163.58 360.18 163.316C359.996 163.052 359.904 162.744 359.904 162.392C359.904 161.848 360.068 161.424 360.396 161.12C360.732 160.816 361.236 160.6 361.908 160.472L363.972 160.04C363.972 159.544 363.864 159.172 363.648 158.924C363.432 158.676 363.108 158.552 362.676 158.552C362.276 158.552 361.964 158.644 361.74 158.828C361.516 159.012 361.364 159.268 361.284 159.596L360.012 159.512C360.132 158.904 360.424 158.412 360.888 158.036C361.352 157.66 361.948 157.472 362.676 157.472C363.492 157.472 364.112 157.704 364.536 158.168C364.968 158.632 365.184 159.272 365.184 160.088V162.608C365.184 162.752 365.216 162.856 365.28 162.92C365.344 162.976 365.436 163.004 365.556 163.004H365.916V164C365.868 164.008 365.788 164.016 365.676 164.024C365.572 164.032 365.468 164.036 365.364 164.036C365.076 164.036 364.832 163.988 364.632 163.892C364.432 163.796 364.28 163.648 364.176 163.448C364.08 163.24 364.024 162.98 364.008 162.668H364.2C364.152 162.948 364.028 163.2 363.828 163.424C363.628 163.648 363.372 163.824 363.06 163.952C362.748 164.08 362.404 164.144 362.028 164.144ZM362.208 163.148C362.592 163.148 362.916 163.08 363.18 162.944C363.444 162.808 363.64 162.616 363.768 162.368C363.904 162.12 363.972 161.828 363.972 161.492V161L362.196 161.36C361.812 161.432 361.544 161.544 361.392 161.696C361.24 161.848 361.164 162.048 361.164 162.296C361.164 162.56 361.256 162.768 361.44 162.92C361.624 163.072 361.88 163.148 362.208 163.148ZM370.111 164.144C369.663 164.144 369.271 164.044 368.935 163.844C368.599 163.636 368.339 163.36 368.155 163.016L368.119 164H366.991V155.48H368.203V158.516C368.363 158.236 368.607 157.992 368.935 157.784C369.271 157.576 369.663 157.472 370.111 157.472C370.655 157.472 371.127 157.608 371.527 157.88C371.927 158.144 372.235 158.528 372.451 159.032C372.667 159.528 372.775 160.12 372.775 160.808C372.775 161.496 372.667 162.092 372.451 162.596C372.235 163.092 371.927 163.476 371.527 163.748C371.127 164.012 370.655 164.144 370.111 164.144ZM369.907 163.028C370.411 163.028 370.803 162.832 371.083 162.44C371.363 162.04 371.503 161.496 371.503 160.808C371.503 160.112 371.363 159.568 371.083 159.176C370.803 158.784 370.419 158.588 369.931 158.588C369.571 158.588 369.263 158.676 369.007 158.852C368.751 159.028 368.551 159.28 368.407 159.608C368.271 159.936 368.203 160.336 368.203 160.808C368.203 161.264 368.271 161.66 368.407 161.996C368.551 162.324 368.747 162.58 368.995 162.764C369.251 162.94 369.555 163.028 369.907 163.028ZM376.13 164V157.616H377.354V164H376.13ZM373.634 164V162.98H379.49V164H373.634ZM373.754 158.636V157.616H377.246V158.636H373.754ZM376.059 156.692V155.432H377.307V156.692H376.059ZM382.606 164V157.292C382.606 157.044 382.534 156.852 382.39 156.716C382.254 156.572 382.062 156.5 381.814 156.5H380.35V155.48H381.946C382.562 155.48 383.026 155.64 383.338 155.96C383.658 156.272 383.818 156.736 383.818 157.352V164H382.606ZM380.11 164V162.98H385.966V164H380.11ZM389.561 164V157.616H390.785V164H389.561ZM387.065 164V162.98H392.921V164H387.065ZM387.185 158.636V157.616H390.677V158.636H387.185ZM389.489 156.692V155.432H390.737V156.692H389.489ZM397.38 164C396.732 164 396.248 163.852 395.928 163.556C395.616 163.252 395.46 162.788 395.46 162.164V156.116H396.672V162.104C396.672 162.4 396.74 162.62 396.876 162.764C397.02 162.908 397.232 162.98 397.512 162.98H399.156V164H397.38ZM393.444 158.636V157.616H399.156V158.636H393.444ZM401.144 165.8V164.78H401.924C402.148 164.78 402.312 164.744 402.416 164.672C402.528 164.608 402.612 164.5 402.668 164.348L402.884 163.784H402.476L400.148 157.616H401.456L403.268 162.644L404.96 157.616H406.256L403.712 164.72C403.584 165.104 403.384 165.38 403.112 165.548C402.848 165.716 402.492 165.8 402.044 165.8H401.144Z" fill="white"/>
<path d="M468 138.5H622C625.038 138.5 627.5 140.962 627.5 144V176C627.5 179.038 625.038 181.5 622 181.5H468C464.962 181.5 462.5 179.038 462.5 176V144C462.5 140.962 464.962 138.5 468 138.5Z" fill="#3C3836"/>
<path d="M468 138.5H622C625.038 138.5 627.5 140.962 627.5 144V176C627.5 179.038 625.038 181.5 622 181.5H468C464.962 181.5 462.5 179.038 462.5 176V144C462.5 140.962 464.962 138.5 468 138.5Z" stroke="#DAD6D4"/>
<path d="M521.804 164V155.48H524.456C525.36 155.48 526.068 155.708 526.58 156.164C527.1 156.62 527.36 157.24 527.36 158.024C527.36 158.432 527.268 158.792 527.084 159.104C526.908 159.416 526.672 159.66 526.376 159.836C526.088 160.012 525.78 160.112 525.452 160.136L525.404 159.992C525.996 160.016 526.436 160.152 526.724 160.4C527.02 160.64 527.192 161.032 527.24 161.576L527.456 164H526.196L526.004 161.816C525.98 161.536 525.92 161.312 525.824 161.144C525.728 160.976 525.58 160.856 525.38 160.784C525.18 160.712 524.904 160.676 524.552 160.676H523.064V164H521.804ZM523.064 159.5H524.432C524.96 159.5 525.364 159.376 525.644 159.128C525.924 158.88 526.064 158.532 526.064 158.084C526.064 157.628 525.924 157.28 525.644 157.04C525.364 156.792 524.96 156.668 524.432 156.668H523.064V159.5ZM531.315 164.144C530.723 164.144 530.203 164.008 529.755 163.736C529.315 163.464 528.971 163.076 528.723 162.572C528.483 162.068 528.363 161.48 528.363 160.808C528.363 160.128 528.483 159.54 528.723 159.044C528.971 158.54 529.315 158.152 529.755 157.88C530.203 157.608 530.723 157.472 531.315 157.472C531.907 157.472 532.423 157.608 532.863 157.88C533.311 158.152 533.655 158.54 533.895 159.044C534.143 159.54 534.267 160.128 534.267 160.808C534.267 161.48 534.143 162.068 533.895 162.572C533.655 163.076 533.311 163.464 532.863 163.736C532.423 164.008 531.907 164.144 531.315 164.144ZM531.315 163.028C531.851 163.028 532.263 162.832 532.551 162.44C532.847 162.048 532.995 161.504 532.995 160.808C532.995 160.112 532.847 159.568 532.551 159.176C532.263 158.784 531.851 158.588 531.315 158.588C530.779 158.588 530.363 158.784 530.067 159.176C529.779 159.568 529.635 160.112 529.635 160.808C529.635 161.504 529.779 162.048 530.067 162.44C530.363 162.832 530.779 163.028 531.315 163.028ZM537.479 164.144C536.863 164.144 536.371 163.936 536.003 163.52C535.635 163.096 535.451 162.504 535.451 161.744V157.616H536.663V161.432C536.663 162.008 536.763 162.428 536.963 162.692C537.163 162.956 537.467 163.088 537.875 163.088C538.315 163.088 538.667 162.94 538.931 162.644C539.203 162.348 539.339 161.928 539.339 161.384V157.616H540.551V164H539.411L539.399 162.332L539.567 162.404C539.455 162.956 539.219 163.384 538.859 163.688C538.499 163.992 538.039 164.144 537.479 164.144ZM545.658 164C545.01 164 544.526 163.852 544.206 163.556C543.894 163.252 543.738 162.788 543.738 162.164V156.116H544.95V162.104C544.95 162.4 545.018 162.62 545.154 162.764C545.298 162.908 545.51 162.98 545.79 162.98H547.434V164H545.658ZM541.722 158.636V157.616H547.434V158.636H541.722ZM551.269 164V157.616H552.493V164H551.269ZM548.773 164V162.98H554.629V164H548.773ZM548.893 158.636V157.616H552.385V158.636H548.893ZM551.197 156.692V155.432H552.445V156.692H551.197ZM555.537 164V157.616H556.653L556.689 159.284L556.557 159.188C556.637 158.796 556.777 158.476 556.977 158.228C557.185 157.972 557.437 157.784 557.733 157.664C558.029 157.536 558.345 157.472 558.681 157.472C559.161 157.472 559.557 157.58 559.869 157.796C560.181 158.004 560.417 158.292 560.577 158.66C560.737 159.02 560.817 159.428 560.817 159.884V164H559.605V160.196C559.605 159.644 559.497 159.228 559.281 158.948C559.073 158.668 558.757 158.528 558.333 158.528C558.037 158.528 557.769 158.592 557.529 158.72C557.297 158.848 557.109 159.04 556.965 159.296C556.821 159.544 556.749 159.852 556.749 160.22V164H555.537ZM564.856 165.944C564.376 165.944 563.948 165.868 563.572 165.716C563.196 165.564 562.884 165.348 562.636 165.068C562.396 164.788 562.228 164.464 562.132 164.096L563.404 164.012C563.492 164.276 563.648 164.484 563.872 164.636C564.096 164.788 564.424 164.864 564.856 164.864C565.392 164.864 565.8 164.752 566.08 164.528C566.368 164.304 566.512 163.972 566.512 163.532V162.596C566.36 162.924 566.12 163.184 565.792 163.376C565.472 163.568 565.1 163.664 564.676 163.664C564.148 163.664 563.676 163.532 563.26 163.268C562.844 163.004 562.52 162.644 562.288 162.188C562.056 161.724 561.94 161.192 561.94 160.592C561.94 159.968 562.052 159.424 562.276 158.96C562.508 158.496 562.828 158.132 563.236 157.868C563.644 157.604 564.108 157.472 564.628 157.472C565.076 157.472 565.468 157.576 565.804 157.784C566.148 157.984 566.396 158.26 566.548 158.612L566.56 157.616H567.724V163.448C567.724 163.984 567.608 164.436 567.376 164.804C567.144 165.18 566.812 165.464 566.38 165.656C565.956 165.848 565.448 165.944 564.856 165.944ZM564.844 162.584C565.34 162.584 565.74 162.408 566.044 162.056C566.348 161.704 566.504 161.212 566.512 160.58C566.52 160.148 566.452 159.784 566.308 159.488C566.172 159.184 565.976 158.952 565.72 158.792C565.472 158.632 565.18 158.552 564.844 158.552C564.324 158.552 563.92 158.732 563.632 159.092C563.352 159.444 563.212 159.94 563.212 160.58C563.212 161.212 563.356 161.704 563.644 162.056C563.94 162.408 564.34 162.584 564.844 162.584Z" fill="white"/>
<path d="M286 202.5H440C443.038 202.5 445.5 204.962 445.5 208V240C445.5 243.038 443.038 245.5 440 245.5H286C282.962 245.5 280.5 243.038 280.5 240V208C280.5 204.962 282.962 202.5 286 202.5Z" fill="#3C3836"/>
<path d="M286 202.5H440C443.038 202.5 445.5 204.962 445.5 208V240C445.5 243.038 443.038 245.5 440 245.5H286C282.962 245.5 280.5 243.038 280.5 240V208C280.5 204.962 282.962 202.5 286 202.5Z" stroke="#DAD6D4"/>
<path d="M333.496 228V219.48H335.572C336.324 219.48 336.976 219.648 337.528 219.984C338.088 220.312 338.516 220.796 338.812 221.436C339.116 222.068 339.268 222.84 339.268 223.752C339.268 224.664 339.116 225.436 338.812 226.068C338.516 226.7 338.088 227.18 337.528 227.508C336.976 227.836 336.324 228 335.572 228H333.496ZM334.756 226.812H335.536C336.312 226.812 336.908 226.56 337.324 226.056C337.748 225.544 337.96 224.776 337.96 223.752C337.96 222.728 337.748 221.96 337.324 221.448C336.908 220.928 336.312 220.668 335.536 220.668H334.756V226.812ZM342.623 228V221.616H343.847V228H342.623ZM340.127 228V226.98H345.983V228H340.127ZM340.247 222.636V221.616H343.739V222.636H340.247ZM342.551 220.692V219.432H343.799V220.692H342.551ZM349.627 228.144C349.059 228.144 348.571 228.048 348.163 227.856C347.755 227.664 347.439 227.408 347.215 227.088C346.991 226.76 346.863 226.396 346.831 225.996L348.067 225.924C348.131 226.268 348.291 226.544 348.547 226.752C348.803 226.952 349.167 227.052 349.639 227.052C350.079 227.052 350.415 226.992 350.647 226.872C350.879 226.752 350.995 226.564 350.995 226.308C350.995 226.148 350.955 226.016 350.875 225.912C350.795 225.8 350.643 225.708 350.419 225.636C350.203 225.556 349.883 225.476 349.459 225.396C348.827 225.276 348.331 225.136 347.971 224.976C347.619 224.808 347.367 224.6 347.215 224.352C347.063 224.096 346.987 223.788 346.987 223.428C346.987 223.06 347.079 222.728 347.263 222.432C347.455 222.136 347.735 221.904 348.103 221.736C348.471 221.56 348.927 221.472 349.471 221.472C350.039 221.472 350.507 221.572 350.875 221.772C351.243 221.964 351.531 222.216 351.739 222.528C351.947 222.84 352.079 223.18 352.135 223.548L350.899 223.62C350.851 223.412 350.767 223.232 350.647 223.08C350.527 222.92 350.367 222.796 350.167 222.708C349.967 222.612 349.735 222.564 349.471 222.564C349.047 222.564 348.735 222.648 348.535 222.816C348.335 222.984 348.235 223.188 348.235 223.428C348.235 223.62 348.283 223.776 348.379 223.896C348.475 224.008 348.635 224.104 348.859 224.184C349.083 224.256 349.387 224.328 349.771 224.4C350.419 224.504 350.919 224.64 351.271 224.808C351.623 224.968 351.871 225.168 352.015 225.408C352.159 225.648 352.231 225.944 352.231 226.296C352.231 226.68 352.119 227.012 351.895 227.292C351.679 227.564 351.375 227.776 350.983 227.928C350.599 228.072 350.147 228.144 349.627 228.144ZM356.39 228.144C355.798 228.144 355.274 228.008 354.818 227.736C354.37 227.456 354.022 227.068 353.774 226.572C353.534 226.068 353.414 225.48 353.414 224.808C353.414 224.136 353.534 223.552 353.774 223.056C354.022 222.56 354.37 222.172 354.818 221.892C355.274 221.612 355.798 221.472 356.39 221.472C356.878 221.472 357.314 221.564 357.698 221.748C358.082 221.924 358.398 222.184 358.646 222.528C358.894 222.872 359.058 223.284 359.138 223.764L357.902 223.848C357.806 223.44 357.626 223.128 357.362 222.912C357.098 222.696 356.778 222.588 356.402 222.588C355.866 222.588 355.442 222.788 355.13 223.188C354.826 223.58 354.674 224.12 354.674 224.808C354.674 225.496 354.826 226.04 355.13 226.44C355.442 226.832 355.866 227.028 356.402 227.028C356.786 227.028 357.114 226.916 357.386 226.692C357.666 226.46 357.85 226.12 357.938 225.672L359.174 225.744C359.094 226.232 358.926 226.656 358.67 227.016C358.414 227.368 358.09 227.644 357.698 227.844C357.314 228.044 356.878 228.144 356.39 228.144ZM362.961 228.144C362.369 228.144 361.849 228.008 361.401 227.736C360.961 227.464 360.617 227.076 360.369 226.572C360.129 226.068 360.009 225.48 360.009 224.808C360.009 224.128 360.129 223.54 360.369 223.044C360.617 222.54 360.961 222.152 361.401 221.88C361.849 221.608 362.369 221.472 362.961 221.472C363.553 221.472 364.069 221.608 364.509 221.88C364.957 222.152 365.301 222.54 365.541 223.044C365.789 223.54 365.913 224.128 365.913 224.808C365.913 225.48 365.789 226.068 365.541 226.572C365.301 227.076 364.957 227.464 364.509 227.736C364.069 228.008 363.553 228.144 362.961 228.144ZM362.961 227.028C363.497 227.028 363.909 226.832 364.197 226.44C364.493 226.048 364.641 225.504 364.641 224.808C364.641 224.112 364.493 223.568 364.197 223.176C363.909 222.784 363.497 222.588 362.961 222.588C362.425 222.588 362.009 222.784 361.713 223.176C361.425 223.568 361.281 224.112 361.281 224.808C361.281 225.504 361.425 226.048 361.713 226.44C362.009 226.832 362.425 227.028 362.961 227.028ZM368.921 228L366.617 221.616H367.925L369.677 226.716L371.429 221.616H372.737L370.433 228H368.921ZM376.476 228.144C375.876 228.144 375.352 228.008 374.904 227.736C374.464 227.464 374.12 227.076 373.872 226.572C373.632 226.068 373.512 225.48 373.512 224.808C373.512 224.136 373.632 223.552 373.872 223.056C374.12 222.56 374.46 222.172 374.892 221.892C375.332 221.612 375.848 221.472 376.44 221.472C377.008 221.472 377.508 221.608 377.94 221.88C378.372 222.144 378.708 222.528 378.948 223.032C379.196 223.528 379.32 224.128 379.32 224.832V225.168H374.784C374.824 225.776 374.992 226.24 375.288 226.56C375.592 226.872 375.992 227.028 376.488 227.028C376.864 227.028 377.176 226.94 377.424 226.764C377.672 226.58 377.844 226.344 377.94 226.056L379.212 226.14C379.028 226.748 378.696 227.236 378.216 227.604C377.744 227.964 377.164 228.144 376.476 228.144ZM374.784 224.196H378.012C377.964 223.652 377.796 223.248 377.508 222.984C377.228 222.72 376.872 222.588 376.44 222.588C375.992 222.588 375.624 222.724 375.336 222.996C375.048 223.268 374.864 223.668 374.784 224.196ZM382.135 228V221.616H383.095L383.203 223.248L383.095 223.236C383.175 222.684 383.347 222.276 383.611 222.012C383.875 221.748 384.239 221.616 384.703 221.616H386.059V222.672H384.751C384.447 222.672 384.191 222.732 383.983 222.852C383.775 222.964 383.615 223.136 383.503 223.368C383.399 223.592 383.347 223.872 383.347 224.208V228H382.135ZM380.515 228V226.98H385.339V228H380.515ZM380.515 222.636V221.616H382.819V222.636H380.515ZM387.782 229.8V228.78H388.562C388.786 228.78 388.95 228.744 389.055 228.672C389.166 228.608 389.25 228.5 389.306 228.348L389.522 227.784H389.114L386.786 221.616H388.094L389.906 226.644L391.599 221.616H392.895L390.35 228.72C390.222 229.104 390.022 229.38 389.75 229.548C389.486 229.716 389.13 229.8 388.683 229.8H387.782Z" fill="white"/>
<path d="M468 202.5H622C625.038 202.5 627.5 204.962 627.5 208V240C627.5 243.038 625.038 245.5 622 245.5H468C464.962 245.5 462.5 243.038 462.5 240V208C462.5 204.962 464.962 202.5 468 202.5Z" fill="#3C3836"/>
<path d="M468 202.5H622C625.038 202.5 627.5 204.962 627.5 208V240C627.5 243.038 625.038 245.5 622 245.5H468C464.962 245.5 462.5 243.038 462.5 240V208C462.5 204.962 464.962 202.5 468 202.5Z" stroke="#DAD6D4"/>
<path d="M521.208 228.192C520.592 228.192 520.052 228.068 519.588 227.82C519.132 227.572 518.768 227.228 518.496 226.788C518.224 226.34 518.064 225.82 518.016 225.228L519.312 225.144C519.368 225.552 519.48 225.896 519.648 226.176C519.816 226.456 520.036 226.668 520.308 226.812C520.58 226.948 520.896 227.016 521.256 227.016C521.608 227.016 521.904 226.972 522.144 226.884C522.384 226.788 522.568 226.652 522.696 226.476C522.824 226.3 522.888 226.088 522.888 225.84C522.888 225.584 522.828 225.36 522.708 225.168C522.588 224.976 522.372 224.8 522.06 224.64C521.748 224.48 521.292 224.316 520.692 224.148C520.108 223.988 519.632 223.808 519.264 223.608C518.896 223.408 518.628 223.16 518.46 222.864C518.292 222.568 518.208 222.2 518.208 221.76C518.208 221.272 518.32 220.844 518.544 220.476C518.776 220.1 519.104 219.808 519.528 219.6C519.96 219.392 520.476 219.288 521.076 219.288C521.668 219.288 522.172 219.404 522.588 219.636C523.012 219.868 523.344 220.192 523.584 220.608C523.832 221.016 523.984 221.496 524.04 222.048L522.744 222.12C522.704 221.792 522.612 221.504 522.468 221.256C522.332 221.008 522.144 220.816 521.904 220.68C521.664 220.536 521.376 220.464 521.04 220.464C520.568 220.464 520.192 220.58 519.912 220.812C519.64 221.036 519.504 221.332 519.504 221.7C519.504 221.948 519.56 222.152 519.672 222.312C519.784 222.472 519.98 222.616 520.26 222.744C520.54 222.872 520.932 223.004 521.436 223.14C522.116 223.324 522.656 223.536 523.056 223.776C523.456 224.016 523.744 224.304 523.92 224.64C524.096 224.976 524.184 225.376 524.184 225.84C524.184 226.304 524.06 226.716 523.812 227.076C523.564 227.428 523.216 227.704 522.768 227.904C522.328 228.096 521.808 228.192 521.208 228.192ZM527.899 228.144C527.299 228.144 526.775 228.008 526.327 227.736C525.887 227.464 525.543 227.076 525.295 226.572C525.055 226.068 524.935 225.48 524.935 224.808C524.935 224.136 525.055 223.552 525.295 223.056C525.543 222.56 525.883 222.172 526.315 221.892C526.755 221.612 527.271 221.472 527.863 221.472C528.431 221.472 528.931 221.608 529.363 221.88C529.795 222.144 530.131 222.528 530.371 223.032C530.619 223.528 530.743 224.128 530.743 224.832V225.168H526.207C526.247 225.776 526.415 226.24 526.711 226.56C527.015 226.872 527.415 227.028 527.911 227.028C528.287 227.028 528.599 226.94 528.847 226.764C529.095 226.58 529.267 226.344 529.363 226.056L530.635 226.14C530.451 226.748 530.119 227.236 529.639 227.604C529.167 227.964 528.587 228.144 527.899 228.144ZM526.207 224.196H529.435C529.387 223.652 529.219 223.248 528.931 222.984C528.651 222.72 528.295 222.588 527.863 222.588C527.415 222.588 527.047 222.724 526.759 222.996C526.471 223.268 526.287 223.668 526.207 224.196ZM534.675 228.144C534.083 228.144 533.559 228.008 533.103 227.736C532.655 227.456 532.307 227.068 532.059 226.572C531.819 226.068 531.699 225.48 531.699 224.808C531.699 224.136 531.819 223.552 532.059 223.056C532.307 222.56 532.655 222.172 533.103 221.892C533.559 221.612 534.083 221.472 534.675 221.472C535.163 221.472 535.599 221.564 535.983 221.748C536.367 221.924 536.683 222.184 536.931 222.528C537.179 222.872 537.343 223.284 537.423 223.764L536.187 223.848C536.091 223.44 535.911 223.128 535.647 222.912C535.383 222.696 535.063 222.588 534.687 222.588C534.151 222.588 533.727 222.788 533.415 223.188C533.111 223.58 532.959 224.12 532.959 224.808C532.959 225.496 533.111 226.04 533.415 226.44C533.727 226.832 534.151 227.028 534.687 227.028C535.071 227.028 535.399 226.916 535.671 226.692C535.951 226.46 536.135 226.12 536.223 225.672L537.459 225.744C537.379 226.232 537.211 226.656 536.955 227.016C536.699 227.368 536.375 227.644 535.983 227.844C535.599 228.044 535.163 228.144 534.675 228.144ZM540.694 228.144C540.078 228.144 539.586 227.936 539.218 227.52C538.85 227.096 538.666 226.504 538.666 225.744V221.616H539.878V225.432C539.878 226.008 539.978 226.428 540.178 226.692C540.378 226.956 540.682 227.088 541.09 227.088C541.53 227.088 541.882 226.94 542.146 226.644C542.418 226.348 542.554 225.928 542.554 225.384V221.616H543.766V228H542.626L542.614 226.332L542.782 226.404C542.67 226.956 542.434 227.384 542.074 227.688C541.714 227.992 541.254 228.144 540.694 228.144ZM546.989 228V221.616H547.949L548.057 223.248L547.949 223.236C548.029 222.684 548.201 222.276 548.465 222.012C548.729 221.748 549.093 221.616 549.557 221.616H550.913V222.672H549.605C549.301 222.672 549.045 222.732 548.837 222.852C548.629 222.964 548.469 223.136 548.357 223.368C548.253 223.592 548.201 223.872 548.201 224.208V228H546.989ZM545.369 228V226.98H550.193V228H545.369ZM545.369 222.636V221.616H547.673V222.636H545.369ZM554.485 228V221.616H555.709V228H554.485ZM551.989 228V226.98H557.845V228H551.989ZM552.109 222.636V221.616H555.601V222.636H552.109ZM554.413 220.692V219.432H555.661V220.692H554.413ZM562.304 228C561.656 228 561.172 227.852 560.852 227.556C560.54 227.252 560.384 226.788 560.384 226.164V220.116H561.596V226.104C561.596 226.4 561.664 226.62 561.8 226.764C561.944 226.908 562.156 226.98 562.436 226.98H564.08V228H562.304ZM558.368 222.636V221.616H564.08V222.636H558.368ZM566.067 229.8V228.78H566.847C567.071 228.78 567.235 228.744 567.339 228.672C567.451 228.608 567.535 228.5 567.591 228.348L567.807 227.784H567.399L565.071 221.616H566.379L568.191 226.644L569.883 221.616H571.179L568.635 228.72C568.507 229.104 568.307 229.38 568.035 229.548C567.771 229.716 567.415 229.8 566.967 229.8H566.067Z" fill="white"/>
<path d="M740 0.5H900C904.142 0.5 907.5 3.85787 907.5 8V117C907.5 121.142 904.142 124.5 900 124.5H740C735.858 124.5 732.5 121.142 732.5 117V8C732.5 3.85787 735.858 0.5 740 0.5Z" fill="#FFFDFA"/>
<path d="M740 0.5H900C904.142 0.5 907.5 3.85787 907.5 8V117C907.5 121.142 904.142 124.5 900 124.5H740C735.858 124.5 732.5 121.142 732.5 117V8C732.5 3.85787 735.858 0.5 740 0.5Z" stroke="#DAD6D4"/>
<path d="M774.16 38.624L772.208 30.496L772.384 30.48V40H770.768V28.64H773.008L775.12 37.264H774.48L776.592 28.64H778.832V40H777.216V30.48L777.392 30.496L775.44 38.624H774.16ZM783.802 40.256C782.884 40.256 782.106 40.016 781.466 39.536C780.836 39.056 780.356 38.3733 780.026 37.488C779.695 36.6027 779.53 35.552 779.53 34.336C779.53 33.1093 779.695 32.0533 780.026 31.168C780.356 30.2827 780.836 29.6 781.466 29.12C782.106 28.6293 782.884 28.384 783.802 28.384C784.836 28.384 785.706 28.7253 786.41 29.408C787.124 30.0907 787.594 31.0453 787.818 32.272L786.058 32.368C785.898 31.5787 785.615 30.9813 785.21 30.576C784.815 30.16 784.346 29.952 783.802 29.952C783.247 29.952 782.783 30.1227 782.41 30.464C782.036 30.8053 781.754 31.3013 781.562 31.952C781.37 32.6027 781.274 33.3973 781.274 34.336C781.274 35.264 781.37 36.0533 781.562 36.704C781.754 37.344 782.036 37.8347 782.41 38.176C782.783 38.5173 783.247 38.688 783.802 38.688C784.388 38.688 784.89 38.464 785.306 38.016C785.722 37.568 785.999 36.912 786.138 36.048L787.882 36.128C787.69 37.4293 787.236 38.4427 786.522 39.168C785.807 39.8933 784.9 40.256 783.802 40.256ZM789.283 40V28.64H792.803C793.593 28.64 794.281 28.784 794.867 29.072C795.465 29.36 795.923 29.7707 796.243 30.304C796.574 30.8267 796.74 31.4507 796.74 32.176C796.74 32.9013 796.574 33.5307 796.243 34.064C795.923 34.5867 795.465 34.992 794.867 35.28C794.281 35.5573 793.593 35.696 792.803 35.696H790.963V40H789.283ZM790.963 34.112H792.627C793.438 34.112 794.035 33.9467 794.419 33.616C794.803 33.2853 794.995 32.8053 794.995 32.176C794.995 31.536 794.803 31.0507 794.419 30.72C794.035 30.3893 793.438 30.224 792.627 30.224H790.963V34.112ZM810.759 40.256C809.938 40.256 809.218 40.0907 808.599 39.76C807.991 39.4293 807.506 38.9707 807.143 38.384C806.78 37.7867 806.567 37.0933 806.503 36.304L808.231 36.192C808.306 36.736 808.455 37.1947 808.679 37.568C808.903 37.9413 809.196 38.224 809.559 38.416C809.922 38.5973 810.343 38.688 810.823 38.688C811.292 38.688 811.687 38.6293 812.007 38.512C812.327 38.384 812.572 38.2027 812.743 37.968C812.914 37.7333 812.999 37.4507 812.999 37.12C812.999 36.7787 812.919 36.48 812.759 36.224C812.599 35.968 812.311 35.7333 811.895 35.52C811.479 35.3067 810.871 35.088 810.071 34.864C809.292 34.6507 808.658 34.4107 808.167 34.144C807.676 33.8773 807.319 33.5467 807.095 33.152C806.871 32.7573 806.759 32.2667 806.759 31.68C806.759 31.0293 806.908 30.4587 807.207 29.968C807.516 29.4667 807.954 29.0773 808.519 28.8C809.095 28.5227 809.783 28.384 810.583 28.384C811.372 28.384 812.044 28.5387 812.599 28.848C813.164 29.1573 813.607 29.5893 813.927 30.144C814.258 30.688 814.46 31.328 814.535 32.064L812.807 32.16C812.754 31.7227 812.631 31.3387 812.439 31.008C812.258 30.6773 812.007 30.4213 811.687 30.24C811.367 30.048 810.983 29.952 810.535 29.952C809.906 29.952 809.404 30.1067 809.031 30.416C808.668 30.7147 808.487 31.1093 808.487 31.6C808.487 31.9307 808.562 32.2027 808.711 32.416C808.86 32.6293 809.122 32.8213 809.495 32.992C809.868 33.1627 810.391 33.3387 811.063 33.52C811.97 33.7653 812.69 34.048 813.223 34.368C813.756 34.688 814.14 35.072 814.375 35.52C814.61 35.968 814.727 36.5013 814.727 37.12C814.727 37.7387 814.562 38.288 814.231 38.768C813.9 39.2373 813.436 39.6053 812.839 39.872C812.252 40.128 811.559 40.256 810.759 40.256ZM819.681 40.192C818.881 40.192 818.182 40.0107 817.585 39.648C816.998 39.2853 816.539 38.768 816.209 38.096C815.889 37.424 815.729 36.64 815.729 35.744C815.729 34.848 815.889 34.0693 816.209 33.408C816.539 32.7467 816.993 32.2293 817.569 31.856C818.155 31.4827 818.843 31.296 819.633 31.296C820.39 31.296 821.057 31.4773 821.633 31.84C822.209 32.192 822.657 32.704 822.977 33.376C823.307 34.0373 823.473 34.8373 823.473 35.776V36.224H817.425C817.478 37.0347 817.702 37.6533 818.097 38.08C818.502 38.496 819.035 38.704 819.697 38.704C820.198 38.704 820.614 38.5867 820.945 38.352C821.275 38.1067 821.505 37.792 821.633 37.408L823.329 37.52C823.083 38.3307 822.641 38.9813 822.001 39.472C821.371 39.952 820.598 40.192 819.681 40.192ZM817.425 34.928H821.729C821.665 34.2027 821.441 33.664 821.057 33.312C820.683 32.96 820.209 32.784 819.633 32.784C819.035 32.784 818.545 32.9653 818.161 33.328C817.777 33.6907 817.531 34.224 817.425 34.928ZM827.227 40V31.488H828.507L828.651 33.664L828.507 33.648C828.613 32.912 828.843 32.368 829.194 32.016C829.547 31.664 830.032 31.488 830.651 31.488H832.458V32.896H830.714C830.309 32.896 829.968 32.976 829.691 33.136C829.413 33.2853 829.2 33.5147 829.05 33.824C828.912 34.1227 828.843 34.496 828.843 34.944V40H827.227ZM825.066 40V38.64H831.499V40H825.066ZM825.066 32.848V31.488H828.139V32.848H825.066ZM836.468 40L833.396 31.488H835.14L837.476 38.288L839.812 31.488H841.556L838.484 40H836.468ZM846.542 40.192C845.742 40.192 845.043 40.0107 844.446 39.648C843.859 39.2853 843.401 38.768 843.07 38.096C842.75 37.424 842.59 36.64 842.59 35.744C842.59 34.848 842.75 34.0693 843.07 33.408C843.401 32.7467 843.854 32.2293 844.43 31.856C845.017 31.4827 845.705 31.296 846.494 31.296C847.251 31.296 847.918 31.4773 848.494 31.84C849.07 32.192 849.518 32.704 849.838 33.376C850.169 34.0373 850.334 34.8373 850.334 35.776V36.224H844.286C844.339 37.0347 844.563 37.6533 844.958 38.08C845.363 38.496 845.897 38.704 846.558 38.704C847.059 38.704 847.475 38.5867 847.806 38.352C848.137 38.1067 848.366 37.792 848.494 37.408L850.19 37.52C849.945 38.3307 849.502 38.9813 848.862 39.472C848.233 39.952 847.459 40.192 846.542 40.192ZM844.286 34.928H848.59C848.526 34.2027 848.302 33.664 847.918 33.312C847.545 32.96 847.07 32.784 846.494 32.784C845.897 32.784 845.406 32.9653 845.022 33.328C844.638 33.6907 844.393 34.224 844.286 34.928ZM854.088 40V31.488H855.368L855.512 33.664L855.368 33.648C855.474 32.912 855.704 32.368 856.056 32.016C856.408 31.664 856.893 31.488 857.512 31.488H859.32V32.896H857.576C857.17 32.896 856.829 32.976 856.552 33.136C856.274 33.2853 856.061 33.5147 855.912 33.824C855.773 34.1227 855.704 34.496 855.704 34.944V40H854.088ZM851.928 40V38.64H858.36V40H851.928ZM851.928 32.848V31.488H855V32.848H851.928ZM864.465 40.192C863.708 40.192 863.057 40.064 862.513 39.808C861.969 39.552 861.548 39.2107 861.249 38.784C860.951 38.3467 860.78 37.8613 860.737 37.328L862.385 37.232C862.471 37.6907 862.684 38.0587 863.025 38.336C863.367 38.6027 863.852 38.736 864.481 38.736C865.068 38.736 865.516 38.656 865.825 38.496C866.135 38.336 866.289 38.0853 866.289 37.744C866.289 37.5307 866.236 37.3547 866.129 37.216C866.023 37.0667 865.82 36.944 865.521 36.848C865.233 36.7413 864.807 36.6347 864.241 36.528C863.399 36.368 862.737 36.1813 862.257 35.968C861.788 35.744 861.452 35.4667 861.249 35.136C861.047 34.7947 860.945 34.384 860.945 33.904C860.945 33.4133 861.068 32.9707 861.313 32.576C861.569 32.1813 861.943 31.872 862.433 31.648C862.924 31.4133 863.532 31.296 864.257 31.296C865.015 31.296 865.639 31.4293 866.129 31.696C866.62 31.952 867.004 32.288 867.281 32.704C867.559 33.12 867.735 33.5733 867.809 34.064L866.161 34.16C866.097 33.8827 865.985 33.6427 865.825 33.44C865.665 33.2267 865.452 33.0613 865.185 32.944C864.919 32.816 864.609 32.752 864.257 32.752C863.692 32.752 863.276 32.864 863.009 33.088C862.743 33.312 862.609 33.584 862.609 33.904C862.609 34.16 862.673 34.368 862.801 34.528C862.929 34.6773 863.143 34.8053 863.441 34.912C863.74 35.008 864.145 35.104 864.657 35.2C865.521 35.3387 866.188 35.52 866.657 35.744C867.127 35.9573 867.457 36.224 867.649 36.544C867.841 36.864 867.937 37.2587 867.937 37.728C867.937 38.24 867.788 38.6827 867.489 39.056C867.201 39.4187 866.796 39.7013 866.273 39.904C865.761 40.096 865.159 40.192 864.465 40.192Z" fill="#A16915"/>
<g clip-path="url(#clip0_167_5338)">
<path d="M756.392 88.6873C756.321 88.3838 756.683 88.1926 756.903 88.413L768.587 100.097C768.807 100.317 768.616 100.679 768.313 100.608C762.416 99.2247 757.775 94.5835 756.392 88.6873ZM756.001 84.0045C755.995 84.0952 756.029 84.1837 756.093 84.2479L772.752 100.907C772.816 100.971 772.905 101.005 772.995 100.999C773.754 100.952 774.498 100.852 775.223 100.703C775.468 100.653 775.553 100.352 775.376 100.176L756.824 81.6235C756.648 81.4469 756.347 81.5319 756.297 81.7765C756.148 82.5025 756.048 83.2464 756.001 84.0045ZM757.347 78.5057C757.294 78.6253 757.321 78.7651 757.414 78.8577L778.142 99.586C778.235 99.6786 778.375 99.7058 778.494 99.6525C779.066 99.3979 779.62 99.1108 780.154 98.7936C780.33 98.6887 780.358 98.4459 780.212 98.3006L758.699 76.7877C758.554 76.6424 758.311 76.6697 758.206 76.8464C757.889 77.3803 757.602 77.9342 757.347 78.5057ZM760.051 74.7837C759.932 74.6652 759.925 74.4753 760.037 74.3504C762.969 71.067 767.236 69 771.985 69C780.83 69 788 76.1703 788 85.0154C788 89.7643 785.933 94.0306 782.65 96.9634C782.525 97.075 782.335 97.0676 782.216 96.9492L760.051 74.7837Z" fill="#3C3836"/>
</g>
<g clip-path="url(#clip1_167_5338)">
<path d="M810.853 89.1575C810.853 90.9969 809.367 92.4835 807.527 92.4835C805.688 92.4835 804.201 90.9969 804.201 89.1575C804.201 87.3182 805.688 85.8315 807.527 85.8315H810.853V89.1575ZM812.516 89.1575C812.516 87.3182 814.003 85.8315 815.842 85.8315C817.681 85.8315 819.168 87.3182 819.168 89.1575V97.4725C819.168 99.3119 817.681 100.798 815.842 100.798C814.003 100.798 812.516 99.3119 812.516 97.4725V89.1575Z" fill="#3C3836"/>
<path d="M815.843 75.8031C814.004 75.8031 812.517 74.3165 812.517 72.4771C812.517 70.6377 814.004 69.1511 815.843 69.1511C817.682 69.1511 819.169 70.6377 819.169 72.4771V75.8031H815.843ZM815.843 77.4913C817.682 77.4913 819.169 78.9779 819.169 80.8173C819.169 82.6566 817.682 84.1432 815.843 84.1432H807.503C805.663 84.1432 804.177 82.6566 804.177 80.8173C804.177 78.9779 805.663 77.4913 807.503 77.4913H815.843Z" fill="#3C3836"/>
<path d="M829.171 80.8173C829.171 78.9779 830.658 77.4913 832.497 77.4913C834.337 77.4913 835.823 78.9779 835.823 80.8173C835.823 82.6566 834.337 84.1432 832.497 84.1432H829.171V80.8173ZM827.508 80.8173C827.508 82.6566 826.022 84.1432 824.182 84.1432C822.343 84.1432 820.856 82.6566 820.856 80.8173V72.4771C820.856 70.6377 822.343 69.1511 824.182 69.1511C826.022 69.1511 827.508 70.6377 827.508 72.4771V80.8173Z" fill="#3C3836"/>
<path d="M824.182 94.1465C826.022 94.1465 827.508 95.6331 827.508 97.4725C827.508 99.3119 826.022 100.798 824.182 100.798C822.343 100.798 820.856 99.3119 820.856 97.4725V94.1465H824.182ZM824.182 92.4835C822.343 92.4835 820.856 90.9969 820.856 89.1575C820.856 87.3182 822.343 85.8315 824.182 85.8315H832.523C834.362 85.8315 835.849 87.3182 835.849 89.1575C835.849 90.9969 834.362 92.4835 832.523 92.4835H824.182Z" fill="#3C3836"/>
</g>
<path d="M867.999 69.5C876.836 69.5001 884 76.6638 884 85.501C884 92.568 879.42 98.561 873.067 100.682C872.256 100.838 871.967 100.339 871.967 99.9111C871.967 99.3866 871.986 97.6608 871.986 95.5225C871.986 94.0295 871.475 93.0527 870.901 92.5586C874.465 92.1627 878.206 90.8106 878.206 84.6641C878.206 82.9167 877.587 81.4889 876.562 80.3701C876.726 79.9653 877.275 78.3388 876.402 76.1357C876.402 76.1357 875.061 75.7058 872.006 77.7754C870.728 77.4209 869.36 77.2442 868.001 77.2373C866.641 77.2442 865.271 77.4208 863.995 77.7754C860.949 75.7132 859.605 76.1327 859.596 76.1357C858.725 78.3385 859.273 79.965 859.438 80.3701C858.415 81.4889 857.791 82.9167 857.791 84.6641C857.791 90.7947 861.527 92.1665 865.079 92.5713C864.622 92.9711 864.209 93.6767 864.063 94.71C863.152 95.1196 860.834 95.8254 859.407 93.3809C859.397 93.3625 858.552 91.8447 856.956 91.7324C856.93 91.7322 855.406 91.7206 856.847 92.7041C856.86 92.7104 857.9 93.2084 858.623 95.0449C858.623 95.0449 859.562 98.1568 864.013 97.1904C864.021 98.5252 864.034 99.531 864.034 99.9111C864.034 100.335 863.743 100.83 862.942 100.684C856.584 98.5669 852 92.569 852 85.501C852 76.6637 859.165 69.5 867.999 69.5Z" fill="#3C3836"/>
<path d="M740 164.5H900C904.142 164.5 907.5 167.858 907.5 172V269C907.5 273.142 904.142 276.5 900 276.5H740C735.858 276.5 732.5 273.142 732.5 269V172C732.5 167.858 735.858 164.5 740 164.5Z" fill="#FFFDFA"/>
<path d="M740 164.5H900C904.142 164.5 907.5 167.858 907.5 172V269C907.5 273.142 904.142 276.5 900 276.5H740C735.858 276.5 732.5 273.142 732.5 269V172C732.5 167.858 735.858 164.5 740 164.5Z" stroke="#DAD6D4"/>
<path d="M803.068 204V192.64H804.748V203.36L803.724 202.416H810.172V204H803.068ZM812.022 204V192.64H813.702V203.36L812.678 202.416H819.126V204H812.022ZM823.567 202.624L821.615 194.496L821.791 194.48V204H820.175V192.64H822.415L824.527 201.264H823.887L825.999 192.64H828.24V204H826.623V194.48L826.799 194.496L824.847 202.624H823.567ZM833.289 204.192C832.532 204.192 831.881 204.064 831.337 203.808C830.793 203.552 830.372 203.211 830.073 202.784C829.775 202.347 829.604 201.861 829.561 201.328L831.209 201.232C831.295 201.691 831.508 202.059 831.849 202.336C832.191 202.603 832.676 202.736 833.305 202.736C833.892 202.736 834.34 202.656 834.649 202.496C834.959 202.336 835.113 202.085 835.113 201.744C835.113 201.531 835.06 201.355 834.953 201.216C834.847 201.067 834.644 200.944 834.345 200.848C834.057 200.741 833.631 200.635 833.065 200.528C832.223 200.368 831.561 200.181 831.081 199.968C830.612 199.744 830.276 199.467 830.073 199.136C829.871 198.795 829.769 198.384 829.769 197.904C829.769 197.413 829.892 196.971 830.137 196.576C830.393 196.181 830.767 195.872 831.257 195.648C831.748 195.413 832.356 195.296 833.081 195.296C833.839 195.296 834.463 195.429 834.953 195.696C835.444 195.952 835.828 196.288 836.105 196.704C836.383 197.12 836.559 197.573 836.633 198.064L834.985 198.16C834.921 197.883 834.809 197.643 834.649 197.44C834.489 197.227 834.276 197.061 834.009 196.944C833.743 196.816 833.433 196.752 833.081 196.752C832.516 196.752 832.1 196.864 831.833 197.088C831.567 197.312 831.433 197.584 831.433 197.904C831.433 198.16 831.497 198.368 831.625 198.528C831.753 198.677 831.967 198.805 832.265 198.912C832.564 199.008 832.969 199.104 833.481 199.2C834.345 199.339 835.012 199.52 835.481 199.744C835.951 199.957 836.281 200.224 836.473 200.544C836.665 200.864 836.761 201.259 836.761 201.728C836.761 202.24 836.612 202.683 836.313 203.056C836.025 203.419 835.62 203.701 835.097 203.904C834.585 204.096 833.983 204.192 833.289 204.192Z" fill="#A16915"/>
<g clip-path="url(#clip2_167_5338)">
<path d="M782.96 234.68C783.28 233.8 783.36 232.92 783.28 232.04C783.2 231.16 782.88 230.28 782.48 229.48C781.76 228.28 780.72 227.32 779.52 226.76C778.24 226.2 776.88 226.04 775.52 226.36C774.88 225.72 774.16 225.16 773.36 224.76C772.56 224.36 771.6 224.2 770.72 224.2C769.36 224.2 768 224.6 766.88 225.4C765.76 226.2 764.96 227.32 764.56 228.6C763.6 228.84 762.8 229.24 762 229.72C761.28 230.28 760.72 231 760.24 231.72C759.52 232.92 759.28 234.28 759.44 235.64C759.6 237 760.16 238.28 761.04 239.32C760.72 240.2 760.64 241.08 760.72 241.96C760.8 242.84 761.12 243.72 761.52 244.52C762.24 245.72 763.28 246.68 764.48 247.24C765.76 247.8 767.12 247.96 768.48 247.64C769.12 248.28 769.84 248.84 770.64 249.24C771.44 249.64 772.4 249.8 773.28 249.8C774.64 249.8 776 249.4 777.12 248.6C778.24 247.8 779.04 246.68 779.44 245.4C780.32 245.24 781.2 244.84 781.92 244.28C782.64 243.72 783.28 243.08 783.68 242.28C784.4 241.08 784.64 239.72 784.48 238.36C784.32 237 783.84 235.72 782.96 234.68ZM773.36 248.12C772.08 248.12 771.12 247.72 770.24 247C770.24 247 770.32 246.92 770.4 246.92L775.52 243.96C775.68 243.88 775.76 243.8 775.84 243.64C775.92 243.48 775.92 243.4 775.92 243.24V236.04L778.08 237.32V243.24C778.16 246.04 775.92 248.12 773.36 248.12ZM763.04 243.72C762.48 242.76 762.24 241.64 762.48 240.52C762.48 240.52 762.56 240.6 762.64 240.6L767.76 243.56C767.92 243.64 768 243.64 768.16 243.64C768.32 243.64 768.48 243.64 768.56 243.56L774.8 239.96V242.44L769.6 245.48C768.48 246.12 767.2 246.28 766 245.96C764.72 245.64 763.68 244.84 763.04 243.72ZM761.68 232.6C762.24 231.64 763.12 230.92 764.16 230.52V230.68V236.6C764.16 236.76 764.16 236.92 764.24 237C764.32 237.16 764.4 237.24 764.56 237.32L770.8 240.92L768.64 242.2L763.52 239.24C762.4 238.6 761.6 237.56 761.28 236.36C760.96 235.16 761.04 233.72 761.68 232.6ZM779.36 236.68L773.12 233.08L775.28 231.8L780.4 234.76C781.2 235.24 781.84 235.88 782.24 236.68C782.64 237.48 782.88 238.36 782.8 239.32C782.72 240.2 782.4 241.08 781.84 241.8C781.28 242.52 780.56 243.08 779.68 243.4V237.32C779.68 237.16 779.68 237 779.6 236.92C779.6 236.92 779.52 236.76 779.36 236.68ZM781.52 233.48C781.52 233.48 781.44 233.4 781.36 233.4L776.24 230.44C776.08 230.36 776 230.36 775.84 230.36C775.68 230.36 775.52 230.36 775.44 230.44L769.2 234.04V231.56L774.4 228.52C775.2 228.04 776.08 227.88 777.04 227.88C777.92 227.88 778.8 228.2 779.6 228.76C780.32 229.32 780.96 230.04 781.28 230.84C781.6 231.64 781.68 232.6 781.52 233.48ZM768.08 237.96L765.92 236.68V230.68C765.92 229.8 766.16 228.84 766.64 228.12C767.12 227.32 767.84 226.76 768.64 226.36C769.44 225.96 770.4 225.8 771.28 225.96C772.16 226.04 773.04 226.44 773.76 227C773.76 227 773.68 227.08 773.6 227.08L768.48 230.04C768.32 230.12 768.24 230.2 768.16 230.36C768.08 230.52 768.08 230.6 768.08 230.76V237.96ZM769.2 235.4L772 233.8L774.8 235.4V238.6L772 240.2L769.2 238.6V235.4Z" fill="#3C3836"/>
</g>
<path d="M826.195 226.5H821.913L829.718 246.24H834L826.195 226.5ZM813.805 226.5L806 246.24H810.373L811.983 242.11H820.152L821.731 246.24H826.104L818.299 226.5H813.805ZM813.38 238.435L816.052 231.511L818.725 238.435H813.38Z" fill="#3C3836"/>
<g clip-path="url(#clip3_167_5338)">
<path d="M880.8 237.026C877.479 237.229 874.347 238.641 871.994 240.994C869.641 243.347 868.23 246.479 868.026 249.8H867.975C867.771 246.479 866.36 243.346 864.007 240.993C861.654 238.64 858.522 237.229 855.2 237.026V236.974C858.522 236.771 861.654 235.36 864.007 233.007C866.36 230.654 867.771 227.521 867.975 224.2H868.026C868.23 227.521 869.641 230.653 871.994 233.006C874.347 235.359 877.479 236.771 880.8 236.974V237.026Z" fill="#3C3836"/>
</g>
<rect x="198.5" y="65" width="35" height="35" rx="7.5" fill="#FFFDFA"/>
<rect x="198.5" y="65" width="35" height="35" rx="7.5" stroke="#DAD6D4"/>
<g clip-path="url(#clip4_167_5338)">
<path fill-rule="evenodd" clip-rule="evenodd" d="M219.073 74.4497C218.671 74.0579 218.131 73.8386 217.569 73.8386C217.007 73.8386 216.467 74.0579 216.065 74.4497L208.043 82.3164C207.909 82.4469 207.729 82.5198 207.542 82.5198C207.355 82.5198 207.175 82.4469 207.041 82.3164C206.975 82.2525 206.923 82.176 206.887 82.0916C206.851 82.0071 206.833 81.9164 206.833 81.8247C206.833 81.733 206.851 81.6423 206.887 81.5579C206.923 81.4734 206.975 81.397 207.041 81.333L215.062 73.4664C215.733 72.8134 216.633 72.448 217.569 72.448C218.505 72.448 219.405 72.8134 220.076 73.4664C220.464 73.844 220.757 74.3081 220.932 74.8209C221.106 75.3336 221.157 75.8804 221.079 76.4164C221.622 76.3391 222.176 76.3876 222.697 76.5581C223.219 76.7286 223.694 77.0165 224.087 77.3997L224.128 77.4414C224.457 77.7609 224.718 78.1431 224.896 78.5654C225.075 78.9876 225.167 79.4413 225.167 79.8997C225.167 80.3581 225.075 80.8118 224.896 81.234C224.718 81.6563 224.457 82.0385 224.128 82.358L216.873 89.4722C216.851 89.4935 216.834 89.519 216.822 89.5471C216.81 89.5752 216.804 89.6054 216.804 89.636C216.804 89.6665 216.81 89.6967 216.822 89.7249C216.834 89.753 216.851 89.7784 216.873 89.7997L218.363 91.2614C218.429 91.3253 218.481 91.4017 218.517 91.4862C218.552 91.5706 218.571 91.6614 218.571 91.753C218.571 91.8447 218.552 91.9355 218.517 92.0199C218.481 92.1044 218.429 92.1808 218.363 92.2447C218.229 92.3752 218.049 92.4482 217.862 92.4482C217.675 92.4482 217.495 92.3752 217.361 92.2447L215.871 90.7839C215.717 90.6348 215.595 90.4564 215.512 90.2593C215.429 90.0622 215.386 89.8504 215.386 89.6364C215.386 89.4224 215.429 89.2106 215.512 89.0135C215.595 88.8164 215.717 88.638 215.871 88.4889L223.126 81.3739C223.323 81.1821 223.479 80.9527 223.586 80.6994C223.693 80.4461 223.748 80.1739 223.748 79.8989C223.748 79.6239 223.693 79.3517 223.586 79.0984C223.479 78.845 223.323 78.6157 223.126 78.4239L223.084 78.383C222.682 77.9916 222.143 77.7724 221.582 77.7719C221.02 77.7714 220.481 77.9898 220.078 78.3805L214.102 84.2422L214.1 84.2439L214.018 84.3247C213.884 84.4554 213.704 84.5286 213.517 84.5286C213.329 84.5286 213.149 84.4554 213.015 84.3247C212.949 84.2608 212.897 84.1844 212.861 84.0999C212.826 84.0155 212.807 83.9247 212.807 83.833C212.807 83.7414 212.826 83.6506 212.861 83.5662C212.897 83.4817 212.949 83.4053 213.015 83.3414L219.076 77.3972C219.272 77.2053 219.428 76.976 219.535 76.7228C219.641 76.4696 219.696 76.1976 219.696 75.9229C219.696 75.6483 219.64 75.3764 219.533 75.1234C219.427 74.8704 219.27 74.6413 219.073 74.4497Z" fill="#3C3836"/>
<path fill-rule="evenodd" clip-rule="evenodd" d="M218.071 76.4216C218.137 76.3577 218.189 76.2812 218.225 76.1968C218.26 76.1123 218.279 76.0216 218.279 75.9299C218.279 75.8382 218.26 75.7475 218.225 75.663C218.189 75.5786 218.137 75.5022 218.071 75.4382C217.937 75.3075 217.757 75.2344 217.569 75.2344C217.382 75.2344 217.202 75.3075 217.068 75.4382L211.135 81.2566C210.806 81.5761 210.545 81.9583 210.367 82.3806C210.189 82.8028 210.097 83.2565 210.097 83.7149C210.097 84.1733 210.189 84.627 210.367 85.0492C210.545 85.4715 210.806 85.8537 211.135 86.1732C211.806 86.8261 212.705 87.1913 213.642 87.1913C214.578 87.1913 215.477 86.8261 216.148 86.1732L222.082 80.3549C222.147 80.291 222.2 80.2146 222.235 80.1301C222.271 80.0457 222.289 79.9549 222.289 79.8632C222.289 79.7716 222.271 79.6808 222.235 79.5964C222.2 79.5119 222.147 79.4355 222.082 79.3716C221.947 79.2409 221.767 79.1677 221.58 79.1677C221.393 79.1677 221.213 79.2409 221.078 79.3716L215.146 85.1899C214.743 85.5818 214.204 85.801 213.642 85.801C213.08 85.801 212.54 85.5818 212.138 85.1899C211.941 84.9981 211.784 84.7688 211.677 84.5154C211.57 84.2621 211.515 83.9899 211.515 83.7149C211.515 83.4399 211.57 83.1677 211.677 82.9144C211.784 82.661 211.941 82.4317 212.138 82.2399L218.071 76.4216Z" fill="#3C3836"/>
</g>
<rect x="198.5" y="204" width="35" height="35" rx="7.5" fill="#FFFDFA"/>
<rect x="198.5" y="204" width="35" height="35" rx="7.5" stroke="#DAD6D4"/>
<g clip-path="url(#clip5_167_5338)">
<path d="M222.85 220.05C223.05 219.5 223.1 218.95 223.05 218.4C223 217.85 222.8 217.3 222.55 216.8C222.1 216.05 221.45 215.45 220.7 215.1C219.9 214.75 219.05 214.65 218.2 214.85C217.8 214.45 217.35 214.1 216.85 213.85C216.35 213.6 215.75 213.5 215.2 213.5C214.35 213.5 213.5 213.75 212.8 214.25C212.1 214.75 211.6 215.45 211.35 216.25C210.75 216.4 210.25 216.65 209.75 216.95C209.3 217.3 208.95 217.75 208.65 218.2C208.2 218.95 208.05 219.8 208.15 220.65C208.25 221.5 208.6 222.3 209.15 222.95C208.95 223.5 208.9 224.05 208.95 224.6C209 225.15 209.2 225.7 209.45 226.2C209.9 226.95 210.55 227.55 211.3 227.9C212.1 228.25 212.95 228.35 213.8 228.15C214.2 228.55 214.65 228.9 215.15 229.15C215.65 229.4 216.25 229.5 216.8 229.5C217.65 229.5 218.5 229.25 219.2 228.75C219.9 228.25 220.4 227.55 220.65 226.75C221.2 226.65 221.75 226.4 222.2 226.05C222.65 225.7 223.05 225.3 223.3 224.8C223.75 224.05 223.9 223.2 223.8 222.35C223.7 221.5 223.4 220.7 222.85 220.05ZM216.85 228.45C216.05 228.45 215.45 228.2 214.9 227.75C214.9 227.75 214.95 227.7 215 227.7L218.2 225.85C218.3 225.8 218.35 225.75 218.4 225.65C218.45 225.55 218.45 225.5 218.45 225.4V220.9L219.8 221.7V225.4C219.85 227.15 218.45 228.45 216.85 228.45ZM210.4 225.7C210.05 225.1 209.9 224.4 210.05 223.7C210.05 223.7 210.1 223.75 210.15 223.75L213.35 225.6C213.45 225.65 213.5 225.65 213.6 225.65C213.7 225.65 213.8 225.65 213.85 225.6L217.75 223.35V224.9L214.5 226.8C213.8 227.2 213 227.3 212.25 227.1C211.45 226.9 210.8 226.4 210.4 225.7ZM209.55 218.75C209.9 218.15 210.45 217.7 211.1 217.45V217.55V221.25C211.1 221.35 211.1 221.45 211.15 221.5C211.2 221.6 211.25 221.65 211.35 221.7L215.25 223.95L213.9 224.75L210.7 222.9C210 222.5 209.5 221.85 209.3 221.1C209.1 220.35 209.15 219.45 209.55 218.75ZM220.6 221.3L216.7 219.05L218.05 218.25L221.25 220.1C221.75 220.4 222.15 220.8 222.4 221.3C222.65 221.8 222.8 222.35 222.75 222.95C222.7 223.5 222.5 224.05 222.15 224.5C221.8 224.95 221.35 225.3 220.8 225.5V221.7C220.8 221.6 220.8 221.5 220.75 221.45C220.75 221.45 220.7 221.35 220.6 221.3ZM221.95 219.3C221.95 219.3 221.9 219.25 221.85 219.25L218.65 217.4C218.55 217.35 218.5 217.35 218.4 217.35C218.3 217.35 218.2 217.35 218.15 217.4L214.25 219.65V218.1L217.5 216.2C218 215.9 218.55 215.8 219.15 215.8C219.7 215.8 220.25 216 220.75 216.35C221.2 216.7 221.6 217.15 221.8 217.65C222 218.15 222.05 218.75 221.95 219.3ZM213.55 222.1L212.2 221.3V217.55C212.2 217 212.35 216.4 212.65 215.95C212.95 215.45 213.4 215.1 213.9 214.85C214.4 214.6 215 214.5 215.55 214.6C216.1 214.65 216.65 214.9 217.1 215.25C217.1 215.25 217.05 215.3 217 215.3L213.8 217.15C213.7 217.2 213.65 217.25 213.6 217.35C213.55 217.45 213.55 217.5 213.55 217.6V222.1ZM214.25 220.5L216 219.5L217.75 220.5V222.5L216 223.5L214.25 222.5V220.5Z" fill="#3C3836"/>
</g>
<path d="M652 83C694.5 83 687.5 83 732.5 83" stroke="#A16915"/>
<path d="M652 221.5C694.5 221.5 687.5 221.5 732.5 221.5" stroke="#A16915"/>
<path d="M176 84C218.5 84 211.5 84 256.5 84" stroke="#A16915"/>
<path d="M256.5 221.5C214 221.5 221 221.5 176 221.5" stroke="#A16915"/>
<rect x="198.5" y="65.5" width="35" height="35" rx="7.5" fill="#FFFDFA"/>
<rect x="198.5" y="65.5" width="35" height="35" rx="7.5" stroke="#DAD6D4"/>
<g clip-path="url(#clip6_167_5338)">
<path fill-rule="evenodd" clip-rule="evenodd" d="M219.073 74.9497C218.671 74.5579 218.131 74.3386 217.569 74.3386C217.007 74.3386 216.467 74.5579 216.065 74.9497L208.043 82.8164C207.909 82.9469 207.729 83.0198 207.542 83.0198C207.355 83.0198 207.175 82.9469 207.041 82.8164C206.975 82.7525 206.923 82.676 206.887 82.5916C206.851 82.5071 206.833 82.4164 206.833 82.3247C206.833 82.233 206.851 82.1423 206.887 82.0579C206.923 81.9734 206.975 81.897 207.041 81.833L215.062 73.9664C215.733 73.3134 216.633 72.948 217.569 72.948C218.505 72.948 219.405 73.3134 220.076 73.9664C220.464 74.344 220.757 74.8081 220.932 75.3209C221.106 75.8336 221.157 76.3804 221.079 76.9164C221.622 76.8391 222.176 76.8876 222.697 77.0581C223.219 77.2286 223.694 77.5165 224.087 77.8997L224.128 77.9414C224.457 78.2609 224.718 78.6431 224.896 79.0654C225.075 79.4876 225.167 79.9413 225.167 80.3997C225.167 80.8581 225.075 81.3118 224.896 81.734C224.718 82.1563 224.457 82.5385 224.128 82.858L216.873 89.9722C216.851 89.9935 216.834 90.019 216.822 90.0471C216.81 90.0752 216.804 90.1054 216.804 90.136C216.804 90.1665 216.81 90.1967 216.822 90.2249C216.834 90.253 216.851 90.2784 216.873 90.2997L218.363 91.7614C218.429 91.8253 218.481 91.9017 218.517 91.9862C218.552 92.0706 218.571 92.1614 218.571 92.253C218.571 92.3447 218.552 92.4355 218.517 92.5199C218.481 92.6044 218.429 92.6808 218.363 92.7447C218.229 92.8752 218.049 92.9482 217.862 92.9482C217.675 92.9482 217.495 92.8752 217.361 92.7447L215.871 91.2839C215.717 91.1348 215.595 90.9564 215.512 90.7593C215.429 90.5622 215.386 90.3504 215.386 90.1364C215.386 89.9224 215.429 89.7106 215.512 89.5135C215.595 89.3164 215.717 89.138 215.871 88.9889L223.126 81.8739C223.323 81.6821 223.479 81.4527 223.586 81.1994C223.693 80.9461 223.748 80.6739 223.748 80.3989C223.748 80.1239 223.693 79.8517 223.586 79.5984C223.479 79.345 223.323 79.1157 223.126 78.9239L223.084 78.883C222.682 78.4916 222.143 78.2724 221.582 78.2719C221.02 78.2714 220.481 78.4898 220.078 78.8805L214.102 84.7422L214.1 84.7439L214.018 84.8247C213.884 84.9554 213.704 85.0286 213.517 85.0286C213.329 85.0286 213.149 84.9554 213.015 84.8247C212.949 84.7608 212.897 84.6844 212.861 84.5999C212.826 84.5155 212.807 84.4247 212.807 84.333C212.807 84.2414 212.826 84.1506 212.861 84.0662C212.897 83.9817 212.949 83.9053 213.015 83.8414L219.076 77.8972C219.272 77.7053 219.428 77.476 219.535 77.2228C219.641 76.9696 219.696 76.6976 219.696 76.4229C219.696 76.1483 219.64 75.8764 219.533 75.6234C219.427 75.3704 219.27 75.1413 219.073 74.9497Z" fill="#3C3836"/>
<path fill-rule="evenodd" clip-rule="evenodd" d="M218.071 76.9216C218.137 76.8577 218.189 76.7812 218.225 76.6968C218.26 76.6123 218.279 76.5216 218.279 76.4299C218.279 76.3382 218.26 76.2475 218.225 76.163C218.189 76.0786 218.137 76.0022 218.071 75.9382C217.937 75.8075 217.757 75.7344 217.569 75.7344C217.382 75.7344 217.202 75.8075 217.068 75.9382L211.135 81.7566C210.806 82.0761 210.545 82.4583 210.367 82.8806C210.189 83.3028 210.097 83.7565 210.097 84.2149C210.097 84.6733 210.189 85.127 210.367 85.5492C210.545 85.9715 210.806 86.3537 211.135 86.6732C211.806 87.3261 212.705 87.6913 213.642 87.6913C214.578 87.6913 215.477 87.3261 216.148 86.6732L222.082 80.8549C222.147 80.791 222.2 80.7146 222.235 80.6301C222.271 80.5457 222.289 80.4549 222.289 80.3632C222.289 80.2716 222.271 80.1808 222.235 80.0964C222.2 80.0119 222.147 79.9355 222.082 79.8716C221.947 79.7409 221.767 79.6677 221.58 79.6677C221.393 79.6677 221.213 79.7409 221.078 79.8716L215.146 85.6899C214.743 86.0818 214.204 86.301 213.642 86.301C213.08 86.301 212.54 86.0818 212.138 85.6899C211.941 85.4981 211.784 85.2688 211.677 85.0154C211.57 84.7621 211.515 84.4899 211.515 84.2149C211.515 83.9399 211.57 83.6677 211.677 83.4144C211.784 83.161 211.941 82.9317 212.138 82.7399L218.071 76.9216Z" fill="#3C3836"/>
</g>
<rect x="198.5" y="204.5" width="35" height="35" rx="7.5" fill="#FFFDFA"/>
<rect x="198.5" y="204.5" width="35" height="35" rx="7.5" stroke="#DAD6D4"/>
<g clip-path="url(#clip7_167_5338)">
<path d="M222.85 220.55C223.05 220 223.1 219.45 223.05 218.9C223 218.35 222.8 217.8 222.55 217.3C222.1 216.55 221.45 215.95 220.7 215.6C219.9 215.25 219.05 215.15 218.2 215.35C217.8 214.95 217.35 214.6 216.85 214.35C216.35 214.1 215.75 214 215.2 214C214.35 214 213.5 214.25 212.8 214.75C212.1 215.25 211.6 215.95 211.35 216.75C210.75 216.9 210.25 217.15 209.75 217.45C209.3 217.8 208.95 218.25 208.65 218.7C208.2 219.45 208.05 220.3 208.15 221.15C208.25 222 208.6 222.8 209.15 223.45C208.95 224 208.9 224.55 208.95 225.1C209 225.65 209.2 226.2 209.45 226.7C209.9 227.45 210.55 228.05 211.3 228.4C212.1 228.75 212.95 228.85 213.8 228.65C214.2 229.05 214.65 229.4 215.15 229.65C215.65 229.9 216.25 230 216.8 230C217.65 230 218.5 229.75 219.2 229.25C219.9 228.75 220.4 228.05 220.65 227.25C221.2 227.15 221.75 226.9 222.2 226.55C222.65 226.2 223.05 225.8 223.3 225.3C223.75 224.55 223.9 223.7 223.8 222.85C223.7 222 223.4 221.2 222.85 220.55ZM216.85 228.95C216.05 228.95 215.45 228.7 214.9 228.25C214.9 228.25 214.95 228.2 215 228.2L218.2 226.35C218.3 226.3 218.35 226.25 218.4 226.15C218.45 226.05 218.45 226 218.45 225.9V221.4L219.8 222.2V225.9C219.85 227.65 218.45 228.95 216.85 228.95ZM210.4 226.2C210.05 225.6 209.9 224.9 210.05 224.2C210.05 224.2 210.1 224.25 210.15 224.25L213.35 226.1C213.45 226.15 213.5 226.15 213.6 226.15C213.7 226.15 213.8 226.15 213.85 226.1L217.75 223.85V225.4L214.5 227.3C213.8 227.7 213 227.8 212.25 227.6C211.45 227.4 210.8 226.9 210.4 226.2ZM209.55 219.25C209.9 218.65 210.45 218.2 211.1 217.95V218.05V221.75C211.1 221.85 211.1 221.95 211.15 222C211.2 222.1 211.25 222.15 211.35 222.2L215.25 224.45L213.9 225.25L210.7 223.4C210 223 209.5 222.35 209.3 221.6C209.1 220.85 209.15 219.95 209.55 219.25ZM220.6 221.8L216.7 219.55L218.05 218.75L221.25 220.6C221.75 220.9 222.15 221.3 222.4 221.8C222.65 222.3 222.8 222.85 222.75 223.45C222.7 224 222.5 224.55 222.15 225C221.8 225.45 221.35 225.8 220.8 226V222.2C220.8 222.1 220.8 222 220.75 221.95C220.75 221.95 220.7 221.85 220.6 221.8ZM221.95 219.8C221.95 219.8 221.9 219.75 221.85 219.75L218.65 217.9C218.55 217.85 218.5 217.85 218.4 217.85C218.3 217.85 218.2 217.85 218.15 217.9L214.25 220.15V218.6L217.5 216.7C218 216.4 218.55 216.3 219.15 216.3C219.7 216.3 220.25 216.5 220.75 216.85C221.2 217.2 221.6 217.65 221.8 218.15C222 218.65 222.05 219.25 221.95 219.8ZM213.55 222.6L212.2 221.8V218.05C212.2 217.5 212.35 216.9 212.65 216.45C212.95 215.95 213.4 215.6 213.9 215.35C214.4 215.1 215 215 215.55 215.1C216.1 215.15 216.65 215.4 217.1 215.75C217.1 215.75 217.05 215.8 217 215.8L213.8 217.65C213.7 217.7 213.65 217.75 213.6 217.85C213.55 217.95 213.55 218 213.55 218.1V222.6ZM214.25 221L216 220L217.75 221V223L216 224L214.25 223V221Z" fill="#3C3836"/>
</g>
<defs>
<clipPath id="clip0_167_5338">
<rect width="32" height="32" fill="white" transform="translate(756 69)"/>
</clipPath>
<clipPath id="clip1_167_5338">
<rect width="32" height="32" fill="white" transform="translate(804 69)"/>
</clipPath>
<clipPath id="clip2_167_5338">
<rect width="25.6" height="25.6" fill="white" transform="translate(759.2 224.2)"/>
</clipPath>
<clipPath id="clip3_167_5338">
<rect width="25.6" height="25.6" fill="white" transform="translate(855.2 224.2)"/>
</clipPath>
<clipPath id="clip4_167_5338">
<rect width="20" height="20" fill="white" transform="translate(206 72.5)"/>
</clipPath>
<clipPath id="clip5_167_5338">
<rect width="16" height="16" fill="white" transform="translate(208 213.5)"/>
</clipPath>
<clipPath id="clip6_167_5338">
<rect width="20" height="20" fill="white" transform="translate(206 73)"/>
</clipPath>
<clipPath id="clip7_167_5338">
<rect width="16" height="16" fill="white" transform="translate(208 214)"/>
</clipPath>
</defs>
</svg>
